<svg preserveAspectRatio="xMidYMid meet" viewBox="52.13 14.9 1787 201" xmlns="http://www.w3.org/2000/svg"><path d="m1144.83 22.4c-2 4.2-3.7 7.8-3.7 8 0 .3 1.5.5 3.3.5 5.7 0 18.4 3.8 26 7.7 10.6 5.4 22.1 17.3 27.6 28.4 3.9 7.9 7 19.1 7.1 25.1 0 1.6.3 2.8.6 2.8.4 0 3.9-1.8 8-4l7.3-4.1-.6-3.7c-1-7-6.4-21.7-10.5-28.6-7.9-13.3-23.1-26.9-37.3-33.2-5-2.2-20.1-6.4-23-6.4-.6 0-2.7 3.4-4.8 7.5z"/><path d="m910.93 49c-25.3 2.8-40.8 19.1-40.8 43 0 19.3 8 29.3 38.6 47.9 19.2 11.8 24.4 16.3 28.5 24.5 2.8 5.7 3.1 7.2 2.6 11.6-.7 6-3.7 10.9-8.8 14.4-4.8 3.4-9.1 4.5-17.5 4.5-13.6 0-24.3-4.9-36.6-16.8l-6.8-6.5v29.2l3.3 2.5c10.3 7.8 25.8 12.6 41.3 12.6 12.4 0 20.5-2.2 29.3-8.1 19.3-12.9 24-41.1 10.4-61.6-5.4-8.2-13.8-15.1-30.6-25.1-25.7-15.3-31.7-21.3-31.7-32.1 0-7.3 2.4-11.1 9.2-15 6.4-3.7 13.9-4.8 23.4-3.4 8.8 1.3 15.9 4.5 24.7 11.1l6.8 5.2-.3-13.7-.3-13.6-5.9-3.3c-10.8-5.9-25.7-8.7-38.8-7.3z"/><path d="m1090.93 48.9c-19.1 3.2-35 11.9-48.4 26.3-15.4 16.6-21.9 33.3-21.9 56.7 0 14.3 1.2 20.4 5.9 32.2 8 19.9 26.6 38 46.8 45.8 37.4 14.4 79.5.8 101.1-32.6 9-13.9 13-27.4 13.1-44.4.1-10.7-1.8-25-3.3-25-.3 0-4.2 2-8.6 4.3l-8 4.3.3 12c.6 21.3-4.4 34.1-18.8 48.4-9.6 9.7-16.4 13.8-28.5 17.1-10.9 3-27.8 2.4-37.7-1.3-15.8-5.9-28.4-16.7-35.5-30.4-5.5-10.5-7.5-18.7-7.5-30.4 0-18 6.3-33.2 18.9-45.7 5.8-5.7 9.3-8.2 16.6-11.7 11.6-5.6 18.6-7 32.7-6.4l11 .5 4.5-8.5c2.5-4.7 4.4-8.6 4.3-8.8-.2-.1-4.1-.9-8.7-1.8-8.7-1.7-20.4-1.9-28.3-.6z"/><path d="m721.23 52.1c-.5 1.3-16 37.7-34.5 81s-33.9 79.4-34.2 80.3c-.6 1.4.8 1.5 11.7 1.3l12.2-.3 10.2-24 10.1-24h69.8l10.9 24.3 11 24.2h11.8c6.6 0 11.9-.3 11.9-.8 0-.4-16.4-37.4-36.3-82.2l-36.4-81.5-8.6-.3c-8.3-.3-8.8-.2-9.6 2zm22.9 64.6c6.7 15 12 27.5 11.7 27.8-.2.2-11.4.3-24.9.2l-24.4-.3 7.8-19c15-36.3 16.1-38.7 16.8-37.4.5.8 6.3 13.7 13 28.7z"/><path d="m52.13 132.9v82h97v-22h-73v-142h-24z"/><path d="m214.13 105.1c.1 61.9.4 65.1 6.9 78.4 7 14.1 21.2 25.1 38.6 29.9 8.9 2.5 34 3.2 43.6 1.2 10.8-2.3 18-5.2 26.5-10.9s14.4-12.4 18.5-21.3c6.3-13.5 6.2-12.7 6.7-74.8l.3-56.7h-24.1v51.7c0 53-.6 62.3-3.9 69.9-4.4 9.9-16.3 18.6-29.2 21.4-8.3 1.8-27 .8-33.7-1.8-12.3-4.8-20.6-12.6-23.9-22.6-1.5-4.5-1.8-11.6-2.1-61.9l-.3-56.7h-23.9z"/><path d="m436.13 132.9v82h22l.2-62.7.3-62.7 54.4 62.7 54.5 62.7h19.6v-164h-22l-.2 63-.3 63-54.5-62.9-54.5-63h-9.7l-9.8-.1z"/><path d="m1282.13 132.9v82h22l.2-62.7.3-62.7 54.4 62.7 54.5 62.7h19.6v-164h-22l-.2 63-.3 63-54.5-62.9-54.5-63h-9.7l-9.8-.1z"/><path d="m1516.13 132.4v81.6l41.8-.3 41.7-.3 9.5-3.3c13.7-4.6 23-10.2 32.7-19.5 17.7-17 26.5-39.3 25-63.2-1.5-21.2-8.8-37.6-23.7-52.6-8.9-9-17-14.3-27.6-18-14.3-4.9-16.8-5.1-59.1-5.6l-40.3-.5zm75.9-59.4c24.6 3.9 43.3 20.7 48.7 43.5 2.4 10.1 1.5 27.6-1.9 36.6-7.1 19.4-21.4 32.4-41 37.4-4.6 1.2-13 1.8-31.9 2.1l-25.8.5v-121.2h22.8c12.5 0 25.6.5 29.1 1.1z"/><path d="m1744.13 132.4v81.5h95v-21h-71v-50l33.3-.2 33.2-.3v-21l-33.2-.3-33.3-.2v-49h69v-21h-93z"/></svg>