<svg preserveAspectRatio="xMidYMid meet" data-bbox="0 0 122 60.33" viewBox="0 0 122 60.33" xmlns="http://www.w3.org/2000/svg" data-type="color" role="img" aria-label="Logo">
  <g>
    <path d="M48.62 25.85c-2.54 0-4.81.12-6.85.37-1.85 4.77-6.5 8.9-14.88 12.27-.05.97-.01 1.99.1 3.04 17.49.01 22.63-6.06 21.64-15.69Z" fill="#a6ddc4" data-color="1"></path>
    <path d="M41.76 26.23c1.54-3.99 1.13-8.43-.71-13.25-3.18.85-6 1.77-8.5 2.75-.75 6.76-5.59 13.68-15.93 20.93.28 1.54.74 3.12 1.36 4.75 3.35-.89 6.3-1.87 8.9-2.91.32-6.56 4.43-11 14.88-12.27Z" fill="#ff7b9e" data-color="2"></path>
    <path d="M41.77 26.23C31.32 27.5 27.21 31.94 26.89 38.5c8.38-3.37 13.04-7.5 14.88-12.27Z" fill="#cedbca" data-color="3"></path>
    <path d="M32.55 15.72c.59-5.3-1.35-10.51-5.12-15.72C1.64 14.87-.78 28.21 8.88 41.55c2.86-1.65 5.44-3.28 7.74-4.9-1.54-8.55 2.59-15.68 15.93-20.93Z" fill="#33317a" data-color="4"></path>
    <path d="M32.55 15.72c-13.34 5.24-17.46 12.37-15.93 20.93C26.96 29.4 31.8 22.49 32.55 15.72Z" fill="#ff539b" data-color="5"></path>
    <path fill="#33317a" d="M52.5 41.47v-4.36h2.61v.47h-2.09v1.47h1.89v.47h-1.89v1.95h-.53.01z" data-color="4"></path>
    <path d="M62.47 37.11H63V40c0 .3-.07.56-.21.8-.14.23-.34.42-.59.55-.25.13-.55.2-.89.2s-.64-.07-.89-.2-.45-.32-.59-.55c-.14-.23-.21-.5-.21-.8v-2.89h.53v2.84c0 .21.05.4.14.57.09.16.23.3.4.39.17.1.38.14.62.14s.45-.05.63-.14c.18-.09.31-.22.4-.39.09-.16.14-.36.14-.57v-2.84Z" fill="#33317a" data-color="4"></path>
    <path fill="#33317a" d="M71.11 37.11v4.36h-.51l-2.38-3.42h-.04v3.42h-.53v-4.36h.51l2.39 3.43h.04v-3.43h.52z" data-color="4"></path>
    <path d="M76.29 41h.78c.36 0 .66-.07.9-.21.24-.14.41-.34.53-.59.12-.26.18-.56.18-.92s-.06-.66-.17-.91c-.12-.26-.29-.45-.52-.59-.23-.14-.51-.2-.85-.2h-.84V41Zm.82.47h-1.35v-4.36h1.41c.42 0 .78.09 1.09.26.3.17.53.42.69.75.16.33.24.71.24 1.16s-.08.84-.24 1.17c-.16.33-.4.58-.71.75-.31.18-.69.26-1.13.26Z" fill="#33317a" data-color="4"></path>
    <path d="M83.85 39.77h2.23v.47h-2.23v-.47Zm-.2 1.7h-.55l1.6-4.36h.54l1.6 4.36h-.55l-1.3-3.67h-.03l-1.3 3.67Z" fill="#33317a" data-color="4"></path>
    <path d="M94.42 38.47h-.53c-.03-.15-.09-.28-.16-.4s-.17-.21-.28-.29c-.11-.08-.23-.14-.36-.18a1.421 1.421 0 0 0-1.14.14c-.21.13-.38.33-.51.59-.13.26-.19.58-.19.95s.06.69.19.95.3.46.51.59c.21.13.45.2.72.2.14 0 .28-.02.42-.06.13-.04.26-.1.36-.18.11-.08.2-.18.28-.29.08-.12.13-.25.16-.4h.53c-.04.22-.11.42-.22.6-.1.18-.24.32-.39.45-.16.12-.33.22-.52.28-.19.06-.4.1-.62.1-.37 0-.7-.09-.99-.27-.29-.18-.52-.44-.68-.77-.17-.34-.25-.73-.25-1.19s.08-.86.25-1.19c.17-.34.39-.59.68-.77.29-.18.62-.27.99-.27.22 0 .43.03.62.1.19.06.37.16.52.28.16.12.29.27.39.45.1.18.18.38.22.6Z" fill="#33317a" data-color="4"></path>
    <path fill="#33317a" d="M99.39 37.11v4.36h-.53v-4.36h.53z" data-color="4"></path>
    <path d="m105.57 36.67.52-.99h.59l-.66.99h-.44Zm1.64 2.62c0-.38-.06-.7-.19-.95-.13-.26-.3-.46-.51-.59-.21-.13-.45-.2-.72-.2s-.5.07-.72.2c-.21.13-.38.33-.51.59-.13.26-.19.58-.19.95s.06.69.19.95.3.46.51.59c.21.13.45.2.72.2s.5-.07.72-.2c.21-.13.38-.33.51-.59.13-.26.19-.58.19-.95Zm.51 0c0 .46-.08.86-.25 1.19-.17.34-.39.59-.68.77-.29.18-.62.27-.99.27s-.7-.09-.99-.27c-.29-.18-.52-.44-.68-.77-.17-.34-.25-.73-.25-1.19s.08-.86.25-1.19c.17-.34.39-.59.68-.77.29-.18.62-.27.99-.27s.7.09.99.27c.29.18.52.44.68.77.17.34.25.73.25 1.19Z" fill="#33317a" data-color="4"></path>
    <path fill="#33317a" d="M115.66 37.11v4.36h-.51l-2.37-3.42h-.05v3.42h-.53v-4.36h.52l2.38 3.43h.04v-3.43h.52z" data-color="4"></path>
    <path d="m7.49 60.05-4.7-9.86v6.54c0 .58.04 1.01.12 1.29.08.28.27.51.56.7.3.19.66.29 1.08.29v1.03H0v-1.03c.4 0 .74-.1 1.03-.31.29-.21.47-.45.54-.72.07-.27.1-.7.1-1.3v-6.65c0-.64-.11-1.06-.33-1.27-.22-.22-.67-.32-1.34-.32v-1.03h5.06l3.9 8.31 3.93-8.31h5.08v1.03h-.25c-.64 0-1.05.12-1.23.35-.19.23-.28.63-.28 1.2v7.48c0 .58.1.98.29 1.21s.6.34 1.23.34h.29v1.03h-6.88v-1.03h.25c.63 0 1.04-.12 1.23-.35.19-.23.28-.63.28-1.2v-7.43L8.22 60.05h-.73Z" fill="#33317a" data-color="4"></path>
    <path d="M23.77 55.57h3.07l-1.58-3.78-1.49 3.78Zm-.4 1.07-.24.62c-.17.44-.26.75-.26.93 0 .3.1.52.31.64s.54.18 1.01.18v1.03h-4.18v-1.03c.79 0 1.46-.68 2.01-2.03l3.89-9.8H27l3.96 9.79c.39.97.75 1.55 1.06 1.75.32.2.62.29.91.29v1.03h-6.28v-1.03c.57 0 .92-.06 1.05-.16.14-.11.2-.25.2-.42 0-.15-.06-.34-.17-.59l-.12-.29-.36-.92h-3.89Z" fill="#33317a" data-color="4"></path>
    <path d="M42.87 55.24v-1.03h5.92v1.03c-.47.08-.78.22-.92.42-.14.2-.22.6-.22 1.22v2.65c-.2-.01-.36-.02-.48-.02-.62 0-1.66.16-3.12.48-1.05.22-1.93.34-2.64.34-1.92 0-3.48-.64-4.66-1.93-1.19-1.28-1.78-2.78-1.78-4.49 0-1.83.63-3.41 1.88-4.73 1.25-1.32 2.8-1.98 4.66-1.98 1.51 0 2.84.48 3.98 1.45.2-.41.32-.85.36-1.31h1l.11 4.42h-1.02c-.64-2.15-1.89-3.23-3.75-3.23-1.11 0-1.95.41-2.53 1.22s-.87 2.18-.87 4.1c0 1.35.08 2.37.26 3.08.17.7.5 1.25.99 1.63.49.39 1.12.58 1.9.58.69 0 1.26-.15 1.72-.45.45-.3.68-.89.68-1.76v-.47c0-.74-.48-1.14-1.45-1.2Z" fill="#33317a" data-color="4"></path>
    <path d="M54.54 51.01v5.81c0 .93.17 1.53.51 1.8.34.27.77.4 1.3.4v1.03H51.6v-1.03c.4 0 .75-.1 1.05-.29.3-.2.49-.42.57-.68.08-.26.12-.66.12-1.22v-6.45c0-1.29-.6-1.93-1.81-1.93v-1.03h4.27l6.93 7.74v-4.63c0-1.38-.58-2.07-1.74-2.07v-1.03h4.54v1.03c-.32 0-.61.09-.89.26s-.46.4-.56.67-.15.66-.15 1.18v9.71h-1.19l-8.2-9.25Z" fill="#33317a" data-color="4"></path>
    <path d="M72.71 53.59c0 1.95.26 3.35.78 4.21.52.86 1.3 1.29 2.33 1.29s1.89-.39 2.43-1.18c.55-.79.82-2.17.82-4.13 0-1.8-.26-3.15-.77-4.04-.51-.89-1.33-1.33-2.45-1.33-1.06 0-1.85.41-2.37 1.24-.52.83-.78 2.14-.78 3.94Zm-3.9.1c0-1.14.32-2.25.95-3.33.64-1.08 1.49-1.88 2.58-2.4s2.24-.78 3.48-.78c2.23 0 3.97.64 5.24 1.93 1.27 1.28 1.9 2.86 1.9 4.72s-.63 3.3-1.89 4.57c-1.26 1.27-2.98 1.91-5.15 1.91-1.49 0-2.8-.31-3.94-.94-1.14-.63-1.95-1.47-2.44-2.53-.48-1.06-.73-2.11-.73-3.15Z" fill="#33317a" data-color="4"></path>
    <path d="m97.76 55.85-.06 4.21H86.18v-1.03h.19c.64 0 1.05-.12 1.23-.35.19-.23.28-.63.28-1.2V50c0-.58-.1-.98-.3-1.21-.2-.23-.61-.34-1.22-.34h-.19v-1.03h6.78v1.03h-.25c-.64 0-1.05.12-1.23.35-.19.23-.28.63-.28 1.2v7.22c0 .54.03.9.09 1.07.06.17.22.32.49.45.26.13.73.19 1.39.19 1.11 0 1.93-.28 2.48-.83.55-.56.92-1.3 1.12-2.24h1Z" fill="#33317a" data-color="4"></path>
    <path d="M100.3 48.44v-1.03h6.69v1.03h-.2c-.63 0-1.04.12-1.23.35-.19.23-.28.63-.28 1.2v7.48c0 .58.1.98.29 1.21.2.23.6.34 1.22.34h.2v1.03h-6.69v-1.03c.67 0 1.12-.1 1.34-.31.22-.2.33-.62.33-1.24v-7.48c0-.6-.1-1.01-.31-1.23-.21-.22-.66-.32-1.36-.32Z" fill="#33317a" data-color="4"></path>
    <path d="M112.84 55.57h3.07l-1.58-3.78-1.49 3.78Zm-.4 1.07-.24.62c-.17.44-.26.75-.26.93 0 .3.1.52.31.64s.54.18 1.01.18v1.03h-4.18v-1.03c.79 0 1.46-.68 2.01-2.03l3.89-9.8h1.09l3.96 9.79c.39.97.75 1.55 1.06 1.75.32.2.62.29.91.29v1.03h-6.28v-1.03c.57 0 .92-.06 1.05-.16.14-.11.2-.25.2-.42 0-.15-.06-.34-.17-.59l-.12-.29-.36-.92h-3.89Z" fill="#33317a" data-color="4"></path>
  </g>
</svg>
