<svg height="20" viewBox="0 0 83 20" width="83" xmlns="http://www.w3.org/2000/svg"><path d="m20.115 2.092h5.112c1.896 0 3.133.084 4.204 1.255.742.837 1.154 1.841 1.154 3.013 0 1.171-.412 2.176-1.236 3.012-.825.837-1.896 1.34-4.617 1.34h-2.472v6.945h-2.144v-15.565zm2.144 6.862h2.473c1.402 0 3.545-.084 3.545-2.678 0-2.427-1.979-2.427-3.133-2.427h-2.884v5.105zm15.169 8.703c-.165-.502-.165-1.088-.165-1.59-.99 1.757-2.39 1.925-3.298 1.925-2.473 0-3.792-1.423-3.792-3.18 0-.837.33-2.26 1.896-3.18 1.154-.67 2.803-.67 3.71-.67.495 0 .824 0 1.402.084 0-1.339 0-1.925-.413-2.427-.412-.502-1.236-.67-1.813-.67-1.979 0-2.144 1.424-2.144 1.842h-1.978c.082-.586.165-1.339.742-2.008.824-.92 2.308-1.172 3.462-1.172 1.566 0 3.215.502 3.792 1.59.33.67.33 1.172.33 1.674l-.082 5.188c0 .167 0 1.59.165 2.678h-1.814zm-1.402-5.357c-.824 0-3.874 0-3.874 2.176 0 .67.412 1.841 2.226 1.841.989 0 1.813-.418 2.308-1.172.412-.753.495-1.338.495-2.845-.33.084-.66 0-1.155 0zm4.864-10.208h1.979v15.565h-1.979zm10.553 15.565c-.165-.502-.165-1.088-.165-1.59-.99 1.757-2.39 1.925-3.298 1.925-2.473 0-3.792-1.423-3.792-3.18 0-.837.33-2.26 1.896-3.18 1.154-.67 2.803-.67 3.71-.67.495 0 .824 0 1.402.084 0-1.339 0-1.925-.413-2.427-.412-.502-1.236-.67-1.813-.67-1.979 0-2.144 1.424-2.144 1.842h-1.978c.082-.586.164-1.339.742-2.008.824-.92 2.308-1.172 3.462-1.172 1.566 0 3.215.502 3.792 1.59.33.67.33 1.172.33 1.674l-.082 5.188c0 .167 0 1.59.165 2.678h-1.814zm-1.32-5.356c-.824 0-3.874 0-3.874 2.176 0 .67.412 1.841 2.226 1.841.99 0 1.814-.418 2.308-1.172.413-.753.495-1.338.495-2.845-.412.084-.66 0-1.154 0zm4.865-4.184v-1.255h1.978v1.757c.248-.418.99-1.924 3.38-1.924.99 0 3.875.334 3.875 3.682v7.364h-2.061v-6.862c0-.67-.082-1.34-.577-1.841-.495-.502-1.237-.753-1.896-.753-1.484 0-2.803 1.087-2.803 3.263v6.193h-1.979v-9.624zm9.893-1.255h1.896v-2.343l1.978-.67v2.93h2.391v1.506h-2.39v6.443c0 .502 0 1.423 1.4 1.423.413 0 .825-.084.99-.084v1.59c-.33.084-.907.167-1.649.167-1.896 0-2.72-.586-2.72-2.343v-7.197h-1.897v-1.422zm7.666-4.77h2.391v2.26h-2.39v-2.26zm.165 4.77h1.979v10.795h-1.979zm3.875 2.176c0-.753-.082-1.507-.082-2.176h1.978l.083 2.092c.412-1.506 1.648-2.008 2.555-2.092a9.379 9.379 0 0 1 1.402-.084v2.009c-.083 0-.248-.084-.412-.084h-.578c-2.39 0-2.885 1.422-2.885 3.263v5.774h-1.978v-8.703h-.083zm-68.755-9.038c-4.122 0-7.502 3.431-7.502 7.615s3.38 7.615 7.502 7.615 7.502-3.43 7.502-7.615c0-4.184-3.38-7.615-7.502-7.615zm0 12.887c-2.886 0-5.194-2.343-5.194-5.272s2.308-5.272 5.194-5.272c2.885 0 5.194 2.343 5.194 5.272-.083 2.929-2.391 5.272-5.194 5.272zm6.677 1.674-6.677 2.928-6.678-2.928-1.154 2.092 7.832 3.347 7.832-3.347z"/></svg>