<svg width="1280" height="770" viewBox="0 0 1280 770" fill="none" xmlns="http://www.w3.org/2000/svg">
<rect width="1280" height="770" fill="#3264E5"/>
<path opacity="0.2" d="M606.956 459.113H460.403L444.769 474.734H606.956V459.113Z" fill="#08112E"/>
<path opacity="0.2" d="M650.595 474.733H818.899V512.086L834.533 496.466V459.113H666.229V401.25L650.595 416.87V474.733Z" fill="#08112E"/>
<path opacity="0.2" d="M918.549 309.973V278.732H735.834L628.707 385.766L521.579 278.732H339V309.973H508.8L613.209 414.29V480.982H444.768V512.086H812.645V480.982H644.341V414.29L748.749 309.973H918.549Z" fill="#08112E"/>
<path opacity="0.2" d="M628.707 376.937L645.292 360.502L541.699 257H354.634L339 272.484H524.162L628.707 376.937Z" fill="#08112E"/>
<path opacity="0.2" d="M940.301 257H753.236L737.738 272.484H924.667V309.973L940.301 294.353V257Z" fill="#08112E"/>
</svg>
