<?xml version="1.0" encoding="UTF-8"?>
<svg id="Layer_1" data-name="Layer 1" xmlns="http://www.w3.org/2000/svg" version="1.1" viewBox="0 0 384.3 100.3">
  <defs>
    <style>
      .cls-1, .cls-2 {
        fill-rule: evenodd;
      }

      .cls-1, .cls-2, .cls-3 {
        stroke-width: 0px;
      }

      .cls-1, .cls-3 {
        fill: #333233;
      }

      .cls-2 {
        fill: #513181;
      }
    </style>
  </defs>
  <path class="cls-1" d="M29.6,79.4c-6.5,0-13.1,0-19.6,0-2.1,0-3.8-1-5-2.7-.3-.4-.5-.7-.8-1.1-1.1-1.8-.9-3.7-.6-5.6,0-.5.4-.9.6-1.3,1.1-2.3,2.2-4.7,3.3-7,1-2,2-3.9,3-5.9.7-1.5,1.3-3,2.1-4.5.9-1.9,1.9-3.9,2.9-5.8.2-.5.4-1,.7-1.5.9-1.8,1.8-3.6,2.6-5.4.2-.4.3-.9.3-1.4,0-4.6,0-9.1,0-13.6s0-2,.7-2.8c.3-.3.6-.5,1-.7,1.3-.5,2.7-.6,4.1-.6,3.3,0,6.6,0,9.9,0,1.1,0,2.1.2,3.1.6,1.4.6,2,1.9,2,3.4,0,4.4,0,8.9,0,13.3,0,1.8.6,3.3,1.5,4.8.5.8.8,1.6,1.2,2.5.3.6.6,1.2.9,1.7.8,1.5,1.5,3,2.2,4.5.9,1.9,1.8,3.9,2.7,5.9.7,1.5,1.5,2.9,2.2,4.4.3.6.6,1.2.9,1.8,1.1,2.2,2.3,4.4,3.2,6.7.5,1.1.6,2.4.6,3.6,0,2.1-1,3.8-2.4,5.3-.9,1-2.2,1.5-3.6,1.5-6.5,0-13.1,0-19.6,0h0ZM29.3,57.8h0s12.3,0,12.3,0c1,0,1.3-.5.9-1.4-.6-1.3-1.3-2.6-2-3.9-.3-.6-.5-1.3-.7-1.9-1.1-2.4-2.2-4.8-3.2-7.1-.3-.8-.7-1.5-1-2.3-.3-.9-.8-1.8-.8-2.7,0-4.4,0-8.8,0-13.2,0-1.4-.3-1.7-1.7-1.7-2.5,0-4.9,0-7.4,0-1.3,0-1.5.1-1.5,1.4v11.5c0,1.3,0,2.6-.6,3.9-.8,1.6-1.4,3.2-2.2,4.9-1,2.3-2.1,4.5-3.2,6.8-.7,1.4-1.4,2.9-2,4.3-.1.3-.3.7-.2,1,.1.2.6.4.9.4,4.1,0,8.2,0,12.3,0Z"/>
  <path class="cls-2" d="M22.3,86.9h29.4c1.1,0,2.2,0,3.3.6,1.8,1.2,2.7,2.8,2.7,5,0,3.1-2.8,5.2-5.5,5.2-19.8,0-24.7,0-44.5,0s-3.5-.5-4.6-2c-1.7-2.2-1.9-4.4,0-6.9,1-1.3,2.3-1.9,4-1.9,10,0,5.1,0,15.2,0h0Z"/>
  <path class="cls-2" d="M22.3,2.4h29.4c1.1,0,2.2,0,3.3.7,1.8,1.2,2.7,2.8,2.7,4.9,0,3.1-2.8,5.2-5.5,5.2-19.8,0-24.7,0-44.5,0-1.8,0-3.5-.5-4.6-2-1.7-2.2-1.9-4.4,0-6.9,1-1.3,2.3-1.9,4-1.9,10,0,5.1,0,15.2,0h0Z"/>
  <path class="cls-3" d="M134.8,70.3c-1.9,2.3-4.7,4.3-8.4,6.1-3.7,1.7-8.3,2.6-13.8,2.6s-12.8-2.2-17.1-6.5c-4.4-4.3-6.6-9.9-6.6-16.8v-11.9c0-6.9,2.1-12.5,6.4-16.8,4.3-4.3,9.8-6.5,16.6-6.5,7.3,0,12.8,1.7,16.5,5.1s5.7,8,6.2,13.9v.2h-12.5c-.4-3-1.4-5.3-2.9-6.8-1.5-1.5-3.8-2.3-6.9-2.3s-5.6,1.2-7.4,3.7c-1.9,2.4-2.8,5.6-2.8,9.4v12c0,4,.9,7.1,2.8,9.6,1.9,2.4,4.4,3.6,7.8,3.6,2.4,0,4.3-.2,5.7-.6,1.4-.4,2.5-.9,3.3-1.6v-9h-9v-8.8h22.2v21.4Z"/>
  <path class="cls-3" d="M189.9,54.8c0,7-2.2,12.8-6.7,17.3-4.4,4.5-10.2,6.8-17.4,6.8-7.2,0-13.1-2.3-17.6-6.8-4.5-4.5-6.7-10.3-6.7-17.3v-10.2c0-7,2.2-12.8,6.7-17.3,4.5-4.6,10.3-6.8,17.5-6.8,7.1,0,12.9,2.3,17.4,6.8,4.5,4.6,6.7,10.3,6.7,17.3v10.2ZM176.8,44.5c0-4.1-1-7.4-2.9-10-1.9-2.6-4.6-3.9-8.1-3.9s-6.3,1.3-8.2,3.9c-1.9,2.6-2.8,5.9-2.8,10v10.3c0,4.1,1,7.5,2.9,10.1,1.9,2.6,4.7,3.9,8.2,3.9s6.1-1.3,8.1-3.9c1.9-2.6,2.9-6,2.9-10.1v-10.3Z"/>
  <path class="cls-3" d="M217.2,62.7l.4,2.1h.2l.4-1.9,11.3-41.6h13.9l-18.5,56.9h-14.3l-18.4-56.9h13.8l11.1,41.5Z"/>
  <path class="cls-3" d="M255.5,74.2h28.1v4h-32.8V21.3h4.7v52.9Z"/>
  <path class="cls-3" d="M324.3,62.3h-26.1l-5.9,15.9h-4.8l21.6-56.9h4.4l21.5,56.9h-4.8l-5.9-15.9ZM299.7,58.1h23l-11.3-30.8h-.2l-11.4,30.8Z"/>
  <path class="cls-3" d="M343.7,78.2V21.3h16.6c5.9,0,10.5,1.2,13.8,3.7,3.3,2.5,4.9,6.2,4.9,11.2,0,2.9-.8,5.5-2.5,7.6s-3.9,3.7-6.7,4.5c3.5.6,6.3,2.3,8.4,4.9,2.1,2.6,3.3,5.8,3.2,9.1,0,5.1-1.6,9-4.9,11.7-3.3,2.7-7.7,4.1-13.2,4.1h-19.7ZM348.3,46.8h13.1c4.1,0,7.3-.9,9.6-2.7,2.3-1.8,3.4-4.5,3.4-8,0-3.6-1.2-6.3-3.6-8.1s-5.9-2.7-10.5-2.7h-12v21.5ZM348.3,50.8v23.4h15c4.2,0,7.5-1,9.9-3.1,2.4-2.1,3.6-5,3.6-8.7,0-3.4-1.1-6.2-3.3-8.4-2.2-2.2-5.3-3.3-9.5-3.3h-15.8Z"/>
</svg>