<svg width="403" height="227" viewBox="0 0 403 227" fill="none" xmlns="http://www.w3.org/2000/svg">
<path fill-rule="evenodd" clip-rule="evenodd" d="M38.9619 145.153C32.4224 145.153 25.8745 145.166 19.3287 145.153C17.1838 145.153 15.551 144.177 14.3527 142.425C14.0841 142.051 13.8175 141.682 13.5657 141.289C12.4366 139.518 12.6213 137.598 12.9613 135.69C13.0452 135.226 13.381 134.827 13.5909 134.397C14.7011 132.055 15.7714 129.698 16.9005 127.39C17.8764 125.411 18.9341 123.465 19.91 121.486C20.6299 120.007 21.2532 118.491 21.9688 117.01C22.8964 115.064 23.9059 113.14 24.8587 111.194C25.1022 110.701 25.2784 110.176 25.5198 109.683C26.3949 107.876 27.3037 106.08 28.1599 104.254C28.3572 103.812 28.4609 103.334 28.4643 102.85C28.4747 98.2999 28.4391 93.7646 28.4391 89.221C28.4391 88.2346 28.458 87.2167 29.1883 86.4213C29.4716 86.1305 29.8059 85.8943 30.1747 85.7245C31.4759 85.1831 32.8316 85.0949 34.2419 85.1117C37.5369 85.1474 40.8234 85.0823 44.1246 85.1474C45.1771 85.1509 46.2182 85.365 47.1866 85.777C48.5466 86.3961 49.1489 87.7162 49.1657 89.1601C49.2014 93.6009 49.2559 98.0438 49.1195 102.468C49.0649 104.311 49.7617 105.767 50.6285 107.265C51.0797 108.057 51.4386 108.913 51.8415 109.734C52.1269 110.321 52.4354 110.905 52.7209 111.482C53.4722 112.997 54.2382 114.508 54.9518 116.025C55.8899 117.975 56.7713 119.954 57.6989 121.916C58.4062 123.398 59.1806 124.836 59.9047 126.324C60.2153 126.93 60.4839 127.556 60.7819 128.168C61.8564 130.391 63.0338 132.576 63.974 134.857C64.4252 135.957 64.5448 137.241 64.5868 138.454C64.6582 140.553 63.5375 142.253 62.2258 143.718C61.315 144.75 60.0201 145.187 58.6035 145.187C52.057 145.171 45.5105 145.166 38.964 145.17L38.9619 145.153ZM38.6051 123.553V123.566H50.9202C51.9506 123.566 52.2696 123.054 51.8247 122.126C51.1825 120.806 50.49 119.503 49.8478 118.185C49.5623 117.578 49.3839 116.913 49.1132 116.296C48.0492 113.918 46.96 111.545 45.8896 109.19C45.5434 108.424 45.153 107.679 44.8403 106.913C44.515 106.021 44.0302 105.106 44.0134 104.185C43.9295 99.7962 43.9777 95.4079 44.0134 91.0195C44.0302 89.6281 43.7532 89.3133 42.3345 89.3406C39.8748 89.3532 37.413 89.3574 34.9576 89.3406C33.6375 89.3406 33.4528 89.4833 33.4528 90.7677C33.4528 94.6209 33.4528 98.4685 33.4528 102.31C33.4528 103.647 33.5305 104.951 32.8652 106.222C32.0257 107.792 31.457 109.469 30.7119 111.091C29.6773 113.368 28.6007 115.635 27.5492 117.916C26.8881 119.333 26.1977 120.768 25.5681 122.198C25.4275 122.506 25.2701 122.947 25.3897 123.22C25.4967 123.43 25.9773 123.572 26.2858 123.572C30.3866 123.566 34.4896 123.553 38.6051 123.553Z" fill="#333233"/>
<path fill-rule="evenodd" clip-rule="evenodd" d="M31.6187 152.658C41.4307 152.658 51.2456 152.658 61.0632 152.658C62.1923 152.658 63.2983 152.597 64.3435 153.288C66.1274 154.503 67.0424 156.047 67.0004 158.241C66.948 161.292 64.2008 163.416 61.4704 163.403C41.6399 163.38 36.8066 163.403 16.9783 163.403C15.1335 163.403 13.5154 162.91 12.3926 161.412C10.7284 159.177 10.5038 156.988 12.4598 154.503C13.4588 153.208 14.783 152.629 16.4473 152.629C26.4958 152.654 21.5555 152.648 31.6166 152.648L31.6187 152.658Z" fill="#513181"/>
<path fill-rule="evenodd" clip-rule="evenodd" d="M31.6189 68.1861C41.4309 68.1861 51.2458 68.1861 61.0634 68.1861C62.1925 68.1987 63.2985 68.1442 64.3437 68.8577C66.1276 70.0707 67.0426 71.6112 67.0006 73.7875C66.9481 76.8558 64.201 78.9797 61.4706 78.9608C41.6401 78.9377 36.8068 78.9419 16.9785 78.9608C15.1337 78.9608 13.5156 78.4613 12.3928 76.9817C10.7286 74.7529 10.504 72.5409 12.46 70.0561C13.459 68.7591 14.7832 68.1672 16.4475 68.1672C26.496 68.2029 21.5557 68.184 31.6168 68.184L31.6189 68.1861Z" fill="#513181"/>
<path d="M144.159 136.106C142.231 138.399 139.432 140.419 135.764 142.165C132.095 143.911 127.483 144.784 121.925 144.784C114.889 144.784 109.175 142.62 104.783 138.293C100.391 133.965 98.1961 128.349 98.1975 121.444V109.562C98.1975 102.706 100.341 97.1032 104.628 92.7534C108.915 88.4035 114.433 86.2272 121.182 86.2244C128.505 86.2244 133.991 87.918 137.64 91.3053C141.289 94.6926 143.361 99.3181 143.857 105.182L143.779 105.417H131.378C130.936 102.42 129.965 100.166 128.467 98.6549C126.968 97.1438 124.682 96.3883 121.606 96.3883C118.528 96.3883 116.052 97.6062 114.179 100.042C112.306 102.478 111.367 105.626 111.365 109.486V121.449C111.365 125.411 112.29 128.598 114.141 131.008C115.992 133.419 118.585 134.624 121.919 134.622C124.344 134.622 126.246 134.427 127.627 134.037C129.008 133.646 130.102 133.125 130.91 132.473V123.48H121.957V114.722H144.159V136.106Z" fill="#333233"/>
<path d="M199.276 120.626C199.276 127.636 197.054 133.415 192.611 137.963C188.167 142.512 182.361 144.785 175.192 144.784C167.972 144.784 162.121 142.51 157.638 137.963C153.156 133.416 150.917 127.637 150.923 120.626V110.391C150.923 103.408 153.157 97.6348 157.626 93.0723C162.095 88.5097 167.925 86.2299 175.118 86.2327C182.254 86.2327 188.066 88.5125 192.554 93.0723C197.043 97.632 199.281 103.405 199.27 110.391L199.276 120.626ZM186.103 110.307C186.103 106.241 185.145 102.905 183.23 100.298C181.314 97.6915 178.611 96.3882 175.118 96.3882C171.548 96.3882 168.819 97.6845 166.933 100.277C165.047 102.87 164.103 106.212 164.1 110.305V120.624C164.1 124.741 165.058 128.103 166.973 130.708C168.889 133.313 171.632 134.616 175.202 134.616C178.666 134.616 181.351 133.313 183.255 130.708C185.159 128.103 186.111 124.741 186.109 120.624L186.103 110.307Z" fill="#333233"/>
<path d="M226.524 128.521L226.914 130.593H227.147L227.539 128.679L238.83 87.0449H252.682L234.226 143.97H219.955L201.583 87.0449H215.382L226.524 128.521Z" fill="#333233"/>
<path d="M264.793 139.982H292.939V143.97H260.105V87.0449H264.795L264.793 139.982Z" fill="#333233"/>
<path d="M333.595 128.091H307.52L301.657 143.97H296.811L318.427 87.0513H322.835L344.306 143.97H339.458L333.595 128.091ZM309.084 123.908H332.071L320.738 93.106H320.505L309.084 123.908Z" fill="#333233"/>
<path d="M353.024 143.97V87.0449H369.637C375.553 87.0449 380.159 88.2901 383.457 90.7806C386.755 93.271 388.403 97.0193 388.402 102.025C388.402 104.945 387.574 107.488 385.919 109.652C384.264 111.816 382.016 113.316 379.176 114.149C382.643 114.776 385.457 116.404 387.619 119.033C389.753 121.583 390.905 124.812 390.865 128.137C390.865 133.216 389.217 137.123 385.921 139.858C382.625 142.594 378.217 143.961 372.699 143.961L353.024 143.97ZM357.675 112.58H370.771C374.888 112.58 378.075 111.674 380.33 109.864C382.585 108.053 383.712 105.389 383.711 101.87C383.711 98.2729 382.513 95.5691 380.116 93.7586C377.719 91.9481 374.227 91.0422 369.639 91.0408H357.677L357.675 112.58ZM357.675 116.567V139.982H372.687C376.884 139.982 380.18 138.95 382.576 136.884C384.971 134.819 386.17 131.93 386.173 128.217C386.173 124.814 385.085 122.022 382.909 119.839C380.734 117.656 377.574 116.566 373.43 116.567H357.675Z" fill="#333233"/>
</svg>
