<svg width="206" height="58" fill="none" xmlns="http://www.w3.org/2000/svg"><path d="M2.007 3.931h4.849v9.03l6.354-9.03h5.518l-7.424 10.367L19.23 25h-5.52l-6.855-9.364V25h-4.85V3.931Zm18.575 0h4.514V25h-4.514V3.931Zm13.89 21.236c-.914 0-1.75-.145-2.508-.434a5.975 5.975 0 0 1-1.973-1.305 6.484 6.484 0 0 1-1.271-2.073c-.29-.803-.435-1.706-.435-2.71V9.617H32.8v8.194c0 1.003.256 1.783.77 2.34.534.558 1.225.837 2.072.837.848 0 1.528-.279 2.04-.836.536-.558.803-1.338.803-2.341V9.616H43V25h-3.344l-.67-1.505c-.378.312-.802.59-1.27.836a7.97 7.97 0 0 1-1.438.602 6.445 6.445 0 0 1-1.806.234Zm11.209-3.846 6.354-7.357H45.68V9.616h12.206v3.68l-6.354 7.357h6.688V25H45.68v-3.679Zm23.243-17.39h8.194c1.092 0 2.096.19 3.01.569.914.356 1.705.87 2.374 1.538a7.044 7.044 0 0 1 1.572 2.274c.379.87.569 1.806.569 2.81 0 1.003-.19 1.939-.569 2.809a7.437 7.437 0 0 1-1.572 2.307 7.52 7.52 0 0 1-2.374 1.538c-.914.357-1.918.535-3.01.535h-3.344V25h-4.85V3.931Zm8.194 9.698c.758 0 1.393-.245 1.906-.735.513-.513.77-1.104.77-1.773 0-.668-.257-1.248-.77-1.739-.513-.512-1.148-.769-1.906-.769h-3.344v5.017h3.344Zm10.186-4.013h3.344l.669 1.673a4.64 4.64 0 0 1 .97-.903 4.584 4.584 0 0 1 1.136-.636c.469-.2.993-.3 1.572-.3a5.622 5.622 0 0 1 .97.1c.134.022.257.044.368.066v4.682c-.134-.044-.29-.1-.468-.167a3.284 3.284 0 0 0-.535-.1 3.089 3.089 0 0 0-.67-.067c-.846 0-1.537.279-2.072.836-.513.557-.77 1.338-.77 2.341V25h-4.514V9.616Zm11.365 0h4.515V25h-4.515V9.616Zm2.341-1.672c-.669 0-1.26-.245-1.773-.735-.49-.513-.735-1.104-.735-1.773 0-.669.245-1.248.735-1.739.513-.513 1.104-.77 1.773-.77.669 0 1.248.257 1.739.77.513.49.769 1.07.769 1.74 0 .668-.256 1.259-.769 1.772-.491.49-1.07.735-1.739.735Zm4.861 13.377 6.354-7.357h-6.354V9.616h12.206v3.68l-6.354 7.357h6.689V25h-12.541v-3.679Zm22.225 4.013c-1.048 0-2.04-.2-2.977-.601a8.447 8.447 0 0 1-2.441-1.706 8.97 8.97 0 0 1-1.672-2.542 8.315 8.315 0 0 1-.602-3.177c0-1.137.201-2.185.602-3.143a8.079 8.079 0 0 1 1.705-2.542 7.578 7.578 0 0 1 2.475-1.706 7.527 7.527 0 0 1 3.077-.635c1.048 0 2.029.19 2.943.568a6.77 6.77 0 0 1 2.374 1.64c.691.69 1.227 1.537 1.606 2.54.401.982.602 2.074.602 3.278 0 .179-.012.357-.034.535l-.067.468c-.022.179-.044.346-.067.502h-10.534c.178.58.535 1.115 1.07 1.605.557.49 1.26.736 2.107.736.424 0 .78-.044 1.07-.134a2.83 2.83 0 0 0 .736-.367c.223-.134.401-.301.535-.502l4.682.334a6.868 6.868 0 0 1-.903 1.806 7.14 7.14 0 0 1-1.505 1.572 7.483 7.483 0 0 1-2.107 1.07c-.78.268-1.672.401-2.675.401Zm3.344-9.364c-.178-.668-.546-1.248-1.104-1.739-.535-.512-1.226-.769-2.073-.769s-1.55.257-2.107.77a3.57 3.57 0 0 0-1.07 1.739h6.354Zm15.555-1.504h-2.007v-4.18h2.007v-.837c0-1.85.479-3.255 1.438-4.214.958-.98 2.318-1.471 4.08-1.471.312 0 .602.022.869.067.268.022.502.056.703.1.222.067.423.123.602.167v4.013l-.335-.066a11.315 11.315 0 0 0-.368-.067 2.884 2.884 0 0 0-.468-.034c-.58 0-1.059.2-1.438.602-.379.38-.569.903-.569 1.572v.167h3.178v4.18h-3.178V25h-4.514V14.466Zm17.389 10.868c-1.093 0-2.118-.2-3.077-.601a8.315 8.315 0 0 1-2.475-1.706 8.623 8.623 0 0 1-1.705-2.542c-.402-.98-.602-2.04-.602-3.177s.2-2.185.602-3.143a8.079 8.079 0 0 1 1.705-2.542 7.568 7.568 0 0 1 2.475-1.706 7.527 7.527 0 0 1 3.077-.635c1.092 0 2.106.212 3.043.635.959.402 1.795.97 2.508 1.706a7.642 7.642 0 0 1 1.672 2.542c.424.958.636 2.006.636 3.143a7.92 7.92 0 0 1-.636 3.177 8.124 8.124 0 0 1-1.672 2.542 8.183 8.183 0 0 1-2.508 1.706 7.646 7.646 0 0 1-3.043.601Zm0-4.18c.936 0 1.727-.346 2.374-1.037.647-.69.97-1.627.97-2.809 0-1.181-.323-2.118-.97-2.809-.647-.691-1.438-1.037-2.374-1.037-.937 0-1.728.346-2.375 1.037-.646.691-.97 1.628-.97 2.81 0 1.18.324 2.117.97 2.808.647.691 1.438 1.037 2.375 1.037Zm10.543-11.538h3.344l.669 1.673a4.72 4.72 0 0 1 .97-.903 4.58 4.58 0 0 1 1.137-.636c.468-.2.992-.3 1.572-.3.201 0 .379.01.535.033.178.022.323.044.435.067.134.022.256.044.368.066v4.682a12.5 12.5 0 0 1-.469-.167 3.275 3.275 0 0 0-.535-.1 3.08 3.08 0 0 0-.669-.067c-.847 0-1.538.279-2.073.836-.513.557-.769 1.338-.769 2.341V25h-4.515V9.616ZM2.007 33.931H10.2c1.093 0 2.096.19 3.01.569.914.356 1.705.87 2.374 1.538a7.046 7.046 0 0 1 1.572 2.274c.38.87.569 1.806.569 2.81 0 1.003-.19 1.939-.569 2.809a7.439 7.439 0 0 1-1.572 2.307 7.52 7.52 0 0 1-2.374 1.538c-.914.357-1.918.535-3.01.535H6.856V55h-4.85V33.931ZM10.2 43.63c.758 0 1.393-.246 1.906-.736.513-.513.77-1.104.77-1.773 0-.669-.257-1.248-.77-1.739-.513-.512-1.148-.769-1.906-.769H6.856v5.017H10.2Zm16.555 11.704c-1.047 0-2.04-.2-2.976-.602a8.453 8.453 0 0 1-2.441-1.705 8.982 8.982 0 0 1-1.672-2.542 8.31 8.31 0 0 1-.602-3.177c0-1.137.2-2.185.602-3.143a8.084 8.084 0 0 1 1.705-2.542 7.568 7.568 0 0 1 2.475-1.706 7.527 7.527 0 0 1 3.077-.635c1.048 0 2.029.19 2.943.569a6.77 6.77 0 0 1 2.374 1.638c.691.691 1.226 1.539 1.605 2.542.402.98.602 2.073.602 3.277 0 .179-.01.357-.033.535l-.067.468c-.022.179-.045.346-.067.502H23.746c.178.58.535 1.115 1.07 1.605.557.49 1.26.736 2.107.736.423 0 .78-.045 1.07-.134a2.84 2.84 0 0 0 .736-.367c.223-.134.4-.301.535-.502l4.682.334a6.85 6.85 0 0 1-.903 1.806 7.147 7.147 0 0 1-1.505 1.572 7.488 7.488 0 0 1-2.107 1.07c-.78.268-1.672.401-2.676.401ZM30.1 45.97c-.179-.668-.547-1.248-1.104-1.739-.535-.512-1.226-.769-2.073-.769-.848 0-1.55.257-2.107.77a3.572 3.572 0 0 0-1.07 1.739H30.1Zm11.358 9.197c-1.672 0-2.954-.401-3.846-1.204-.891-.825-1.337-1.873-1.337-3.143 0-.758.145-1.45.434-2.074.313-.646.825-1.193 1.539-1.639.713-.468 1.65-.824 2.81-1.07 1.18-.267 2.652-.4 4.413-.4 0-.759-.189-1.339-.568-1.74-.379-.401-.858-.602-1.438-.602-.424 0-.77.09-1.037.268a2.763 2.763 0 0 0-.602.501 1.907 1.907 0 0 0-.368.736l-4.514-.334a6.9 6.9 0 0 1 .702-2.074 5.24 5.24 0 0 1 1.304-1.639c.558-.468 1.226-.825 2.007-1.07.78-.267 1.672-.401 2.675-.401a6.78 6.78 0 0 1 2.542.468c.78.312 1.449.758 2.006 1.338a5.664 5.664 0 0 1 1.338 2.006c.312.78.468 1.628.468 2.542V55h-3.344l-.669-1.505c-.379.312-.803.59-1.27.836a7.97 7.97 0 0 1-1.439.602 6.445 6.445 0 0 1-1.806.234Zm1.17-3.344c.848 0 1.528-.256 2.04-.77.536-.534.803-1.225.803-2.073v-.668c-.958 0-1.75.055-2.374.167-.602.089-1.081.223-1.438.401-.334.178-.569.39-.702.635a1.916 1.916 0 0 0-.168.803c0 .424.157.78.469 1.07.334.29.791.435 1.37.435Zm17.737 3.511c-1.092 0-2.118-.2-3.077-.602a8.314 8.314 0 0 1-2.474-1.705 8.626 8.626 0 0 1-1.706-2.542 8.31 8.31 0 0 1-.602-3.177c0-1.137.2-2.185.602-3.143a8.082 8.082 0 0 1 1.706-2.542 7.566 7.566 0 0 1 2.474-1.706 7.527 7.527 0 0 1 3.077-.635c.758 0 1.45.09 2.074.268a6.244 6.244 0 0 1 1.672.668c.49.29.914.613 1.27.97.38.357.703.725.97 1.104a9.264 9.264 0 0 1 1.372 3.01l-4.515.334a4.161 4.161 0 0 0-.602-1.07 3.409 3.409 0 0 0-.903-.736c-.357-.245-.803-.368-1.338-.368-.936 0-1.728.346-2.374 1.037-.647.691-.97 1.628-.97 2.81 0 1.18.323 2.117.97 2.808.646.692 1.438 1.037 2.374 1.037.535 0 .981-.111 1.338-.334.379-.223.68-.468.903-.736a4.02 4.02 0 0 0 .602-1.104l4.515.335a9.264 9.264 0 0 1-1.371 3.01 7.32 7.32 0 0 1-.97 1.103 6.36 6.36 0 0 1-1.271.97c-.49.29-1.048.513-1.672.669a7.537 7.537 0 0 1-2.074.267Zm16.88 0c-1.047 0-2.04-.2-2.976-.602a8.454 8.454 0 0 1-2.44-1.705 8.982 8.982 0 0 1-1.673-2.542 8.31 8.31 0 0 1-.602-3.177c0-1.137.2-2.185.602-3.143a8.082 8.082 0 0 1 1.706-2.542 7.566 7.566 0 0 1 2.474-1.706 7.527 7.527 0 0 1 3.077-.635c1.048 0 2.029.19 2.943.569a6.769 6.769 0 0 1 2.375 1.638c.69.691 1.226 1.539 1.605 2.542.401.98.602 2.073.602 3.277 0 .179-.011.357-.034.535l-.067.468c-.022.179-.044.346-.067.502H74.236c.178.58.535 1.115 1.07 1.605.558.49 1.26.736 2.107.736.424 0 .78-.045 1.07-.134.312-.111.558-.234.736-.367.223-.134.401-.301.535-.502l4.682.334a6.85 6.85 0 0 1-.903 1.806 7.147 7.147 0 0 1-1.505 1.572 7.486 7.486 0 0 1-2.107 1.07c-.78.268-1.672.401-2.675.401Zm3.345-9.364c-.178-.668-.546-1.248-1.103-1.739-.535-.512-1.227-.769-2.074-.769-.847 0-1.55.257-2.107.77a3.571 3.571 0 0 0-1.07 1.739h6.354Zm11.526-7.357h-6.02v-4.682h16.889v4.682h-6.02V55h-4.849V38.613Zm17.919 16.721c-1.047 0-2.04-.2-2.976-.602a8.447 8.447 0 0 1-2.441-1.705 8.97 8.97 0 0 1-1.672-2.542c-.402-.98-.602-2.04-.602-3.177s.2-2.185.602-3.143a8.079 8.079 0 0 1 1.705-2.542 7.567 7.567 0 0 1 2.475-1.706 7.528 7.528 0 0 1 3.077-.635c1.047 0 2.028.19 2.943.569a6.77 6.77 0 0 1 2.374 1.638c.691.691 1.226 1.539 1.605 2.542.402.98.602 2.073.602 3.277 0 .179-.011.357-.033.535a74.264 74.264 0 0 0-.134.97h-10.534c.178.58.535 1.115 1.07 1.605.557.49 1.259.736 2.107.736.423 0 .78-.045 1.07-.134.312-.111.557-.234.735-.367.223-.134.402-.301.536-.502l4.682.334a6.868 6.868 0 0 1-.903 1.806 7.163 7.163 0 0 1-1.505 1.572 7.497 7.497 0 0 1-2.107 1.07c-.781.268-1.672.401-2.676.401Zm3.345-9.364c-.179-.668-.547-1.248-1.104-1.739-.535-.512-1.226-.769-2.073-.769-.848 0-1.55.257-2.107.77a3.57 3.57 0 0 0-1.07 1.739h6.354Zm14.034 9.364c-1.093 0-2.118-.2-3.077-.602a8.328 8.328 0 0 1-2.475-1.705 8.623 8.623 0 0 1-1.705-2.542c-.402-.98-.602-2.04-.602-3.177s.2-2.185.602-3.143a8.079 8.079 0 0 1 1.705-2.542 7.578 7.578 0 0 1 2.475-1.706 7.528 7.528 0 0 1 3.077-.635c.758 0 1.449.09 2.073.268a6.24 6.24 0 0 1 1.672.668c.491.29.914.613 1.271.97.379.357.702.725.97 1.104a9.272 9.272 0 0 1 1.371 3.01l-4.515.334a4.135 4.135 0 0 0-.602-1.07 3.394 3.394 0 0 0-.903-.736c-.356-.245-.802-.368-1.337-.368-.937 0-1.728.346-2.375 1.037-.646.691-.969 1.628-.969 2.81 0 1.18.323 2.117.969 2.808.647.692 1.438 1.037 2.375 1.037.535 0 .981-.111 1.337-.334.38-.223.68-.468.903-.736a4 4 0 0 0 .602-1.104l4.515.335a9.272 9.272 0 0 1-1.371 3.01 7.348 7.348 0 0 1-.97 1.103c-.357.357-.78.68-1.271.97a6.24 6.24 0 0 1-1.672.669 7.532 7.532 0 0 1-2.073.267Zm9.858-21.403h4.514v7.19c.29-.312.636-.59 1.037-.836.357-.2.803-.39 1.338-.568.557-.179 1.215-.268 1.973-.268a5.69 5.69 0 0 1 2.307.468c.736.29 1.36.725 1.873 1.305.513.557.914 1.237 1.204 2.04.312.802.468 1.705.468 2.709V55h-4.514v-8.193c0-1.004-.268-1.784-.803-2.341-.513-.558-1.193-.837-2.04-.837s-1.538.28-2.074.837c-.512.557-.769 1.337-.769 2.34V55h-4.514V33.931ZM195.75 8.035a1.77 1.77 0 0 1-.588-.091 1.422 1.422 0 0 1-.448-.266 1.234 1.234 0 0 1-.287-.399 1.474 1.474 0 0 1-.112-.504h.35c.037.28.147.509.329.686.187.173.439.259.756.259.336 0 .595-.084.777-.252a.868.868 0 0 0 .273-.658c0-.21-.061-.373-.182-.49a1.294 1.294 0 0 0-.448-.294 3.843 3.843 0 0 0-.581-.189 3.324 3.324 0 0 1-.581-.217 1.385 1.385 0 0 1-.448-.35c-.117-.145-.175-.343-.175-.595 0-.15.03-.292.091-.427a1.12 1.12 0 0 1 .273-.357c.121-.103.266-.184.434-.245.168-.06.357-.091.567-.091a1.33 1.33 0 0 1 1.211.756c.07.145.11.301.119.469h-.35a.976.976 0 0 0-.294-.651c-.177-.173-.406-.259-.686-.259a1.222 1.222 0 0 0-.749.245.815.815 0 0 0-.196.259.688.688 0 0 0-.07.301c0 .2.058.357.175.469a1.5 1.5 0 0 0 .448.266c.182.07.376.133.581.189.21.051.404.124.581.217.182.093.331.217.448.371.121.15.182.357.182.623 0 .177-.033.34-.098.49a1.02 1.02 0 0 1-.273.385 1.404 1.404 0 0 1-.441.259 1.77 1.77 0 0 1-.588.091Zm2.277-4.445h.315l1.715 3.815 1.715-3.815h.315V8h-.35V4.5L200.162 8h-.21l-1.575-3.5V8h-.35V3.59Z" fill="#009EDB"/></svg>