<svg fill="none" height="41" viewBox="0 0 331 41" width="331" xmlns="http://www.w3.org/2000/svg"><path clip-rule="evenodd" d="m319.508 20.587c0-1.615 1.57-2.408 2.763-2.408 1.19 0 2.798.758 2.798 2.501h5.316c-.096-4.428-3.557-7.473-8.065-7.473-4.314 0-8.25 2.999-8.25 7.38 0 9.04 11.681 6.664 11.681 11.557 0 1.216-1.256 2.73-3.48 2.73a3.88 3.88 0 0 1 -3.841-3.807h-5.413c0 4.01 1.906 7.09 5.796 8.43 1.081.382 2.219.585 3.365.598 5.028 0 8.822-3.135 8.822-8.162 0-4.936-3.605-7.01-7.919-8.3-1.847-.457-3.573-.99-3.573-3.046zm-174.954 19.019 14.58-39.606h-6.209l-11.473 31.174-11.476-31.174h-6.207l14.578 39.606-.005.016h6.217zm61.944.016v-15.148c-.099-2.968-2.337-5.68-5.373-5.71-2.968-.021-5.37 2.747-5.37 5.8l-.005 15.061h-5.674v-15.11c.027-6.24 4.962-11.308 11.052-11.308 6.1 0 11.051 5.084 11.051 11.36v15.058zm24.236-25.934h-3.364v-9.287h-6.065v9.287h-3.381v5.437h3.381v20.495h6.059v-20.49h3.368v-5.439zm40.579.009h-6.092v25.925h6.092v-15.394c0-2.63 2.796-5.125 7.17-5.125v-5.885c-3.613 0-5.881 1.446-7.172 2.819v-2.337zm-237.578 25.928h6.042v-39.625h-6.045zm-19.685-23.717 16.837-15.908h-8.642l-16.137 15.252v-15.252h-6.108v39.62h6.106v-16.21l3.542-3.348 13.932 19.563h7.359l-16.89-23.717zm83.198-2.217h-22.103v5.42h14.228l-14.225 15.092v5.423h22.1v-5.423h-14.227l14.22-15.088.007-5.423zm-34.413.006v15.088c-.096 2.968-2.333 5.647-5.367 5.674-2.97.027-5.372-2.621-5.372-5.674l-.006-15.088h-5.676v15.088c.027 6.24 4.965 11.33 11.051 11.33 6.103 0 11.05-5.057 11.05-11.33v-15.088zm190.076.005v15.088c-.095 2.966-2.336 5.642-5.37 5.67-2.968.026-5.369-2.622-5.369-5.672l-.009-15.088h-5.676v15.088c.028 6.24 4.965 11.326 11.054 11.326 6.101 0 11.047-5.056 11.047-11.326l.002-15.088zm42.398 4.732c4.459 0 6.752 3.679 7.261 5.384h-14.482c.456-1.667 2.763-5.384 7.221-5.384zm-.049 16.572c-4.232 0-6.951-3.636-7.457-6.216h20.577c.561-4.319-.482-8.43-3.8-11.759a12.92 12.92 0 0 0 -9.271-3.82c-8.521 0-13.308 7.387-13.333 13.065-.021 4.242 1.508 7.434 3.874 9.84 2.41 2.454 5.657 4.001 9.388 4.001 3.614 0 6.656-1.383 9.178-3.764 1.305-1.232 2.399-2.692 3.042-4.253h-6.267c-1.272 1.484-3.108 2.892-5.931 2.906zm-124.965-16.572c4.459 0 6.752 3.679 7.261 5.384h-14.482c.456-1.667 2.762-5.384 7.221-5.384zm-.049 16.572c-4.232 0-6.951-3.636-7.454-6.216h20.574c.561-4.319-.482-8.43-3.803-11.759a12.91 12.91 0 0 0 -9.268-3.82c-8.521 0-13.308 7.387-13.333 13.065-.019 4.242 1.505 7.434 3.874 9.84 2.407 2.454 5.66 4.001 9.388 4.001 3.614 0 6.656-1.383 9.178-3.764 1.305-1.232 2.399-2.692 3.042-4.253h-6.264c-1.275 1.484-3.108 2.892-5.934 2.906z" fill="#2b296a" fill-rule="evenodd"/></svg>