<?xml version="1.0" encoding="UTF-8"?>
<svg id="Layer_1" data-name="Layer 1" xmlns="http://www.w3.org/2000/svg" version="1.1" viewBox="0 0 1170.5 194.2">
  <defs>
    <style>
      .cls-1 {
        fill: #3264e5;
        stroke-width: 0px;
      }
    </style>
  </defs>
  <g id="Page-1">
    <g id="Kluz-Prize-for-PeaceTech-Dark">
      <g id="Logo">
        <polygon id="Path" class="cls-1" points="201 152.1 93.2 152.1 81.7 163.6 201 163.6 201 152.1"/>
        <polygon id="Path-2" data-name="Path" class="cls-1" points="233.1 163.6 356.9 163.6 356.9 191.1 368.4 179.6 368.4 152.1 244.6 152.1 244.6 109.5 233.1 121 233.1 163.6"/>
        <polygon id="Path-3" data-name="Path" class="cls-1" points="430.2 42.3 430.2 19.3 295.8 19.3 217 98.1 138.2 19.3 3.9 19.3 3.9 42.3 128.8 42.3 205.6 119.1 205.6 168.2 81.7 168.2 81.7 191.1 352.3 191.1 352.3 168.2 228.5 168.2 228.5 119.1 305.3 42.3 430.2 42.3"/>
        <polygon id="Path-4" data-name="Path" class="cls-1" points="217 91.6 229.2 79.5 153 3.3 153 3.3 15.4 3.3 3.9 14.7 140.1 14.7 217 91.6"/>
        <polygon id="Path-5" data-name="Path" class="cls-1" points="446.2 3.3 308.6 3.3 308.6 3.3 297.2 14.7 434.7 14.7 434.7 42.3 446.2 30.8 446.2 3.3"/>
      </g>
    </g>
  </g>
  <path id="Path-6" data-name="Path" class="cls-1" d="M503.1,102.4h16.1c-.1-4.3-.1-8.5-.1-14.5v-16.8h9.3c3.4,4.6,6.3,8.4,9.2,12l15.9,19.5h20v-.2c-11.1-12.8-22.1-26-33-38.9,8.9-10.5,20.9-24,31.2-35.5v-.2h-19.7l-13.7,16.1c-3,3.6-6.3,8.1-10.6,13.7h-8.8v-16.2c0-5.4,0-9.6.1-13.6h-16.1c.1,4.1.1,8.1.1,13.6v46.7c0,6,0,10.4-.1,14.5v-.2Z"/>
  <path id="Path-7" data-name="Path" class="cls-1" d="M582.4,102.4h56.1v-14.4c-8.4.1-16.4.1-23.8.1h-16.2v-47.1c0-5.3,0-9.4.1-13.3h-16.1c.1,4.1.1,8.1.1,13.7v46.4c0,6.1,0,10.6-.1,14.7h0Z"/>
  <path id="Path-8" data-name="Path" class="cls-1" d="M715.6,71.2c0-9.2-.1-16.7-.1-22.2v-7.9c0-5.4,0-9.9.1-13.5h-16.1c.1,3.5.1,8.2.1,13.2v29.5c0,15.6-4.1,19.2-18.9,19.2s-18.9-3.6-18.9-19.2V27.5h-16c.1,3.5.1,8,.1,13.6v7.8c0,5.4-.1,13.1-.1,22.2,0,24.6,8.2,32.7,34.8,32.7s35-8,35-32.6h0Z"/>
  <path id="Path-9" data-name="Path" class="cls-1" d="M793.3,88.5c-8.4.1-26.7.1-37.2.1h-12.4v-1.1c7.6-6.2,15.1-12.4,22.5-18.6l26.3-22.3v-19h-64.4v13.8c8.4-.1,21.4-.1,30.9-.1h17.6v.6c-7,5.4-14.3,11.2-21.8,17.6l-27.1,23.7v19.1h65.5v-13.9h.1Z"/>
  <path id="Shape" class="cls-1" d="M907.4,53.6c0-18.9-7.4-26-27.1-26h-40.4c.1,4.5.1,7.9.1,13.2v47.1c0,6,0,9.6-.1,14.4h16.1c-.1-4.8-.1-8.5-.1-14.4v-7.7h24.3c19.7,0,27.1-7.5,27.1-26.3v-.4h0ZM891,54c0,9.6-3.5,12.6-13.1,12.6h-22v-25.4h22c9.6,0,13.1,2.9,13.1,12.6v.2Z"/>
  <path id="Shape-2" data-name="Shape" class="cls-1" d="M919.3,102.4h16.1c-.1-4.2-.1-8.5-.1-14.5v-10.1h21.8l7.3,12.6c2.3,4.2,4.6,8.3,6.7,12.1h18c-3.5-5.4-6.8-11.1-9.9-16.7-2.2-3.8-4.2-7.4-6.2-10.8,10.8-3,14.4-10.4,14.4-22.7v-.3c0-18.2-7.9-24.2-27.1-24.2h-41c.1,4,.1,8.1.1,13.6v46.7c0,6,0,10.5-.1,14.5h0ZM935.3,41.2h22.6c9.6,0,13.1,2.7,13.1,11.1v.2c0,8.5-3.5,11.7-13.3,11.7h-22.4v-23.1h0Z"/>
  <path id="Path-10" data-name="Path" class="cls-1" d="M1000.1,102.4h16.6c-.1-4.3-.1-8.5-.1-14.5v-46.7c0-5.4,0-9.6.1-13.6h-16.6c.1,4.1.1,8.1.1,13.6v46.7c0,6,0,10.4-.1,14.5Z"/>
  <path id="Path-11" data-name="Path" class="cls-1" d="M1095.2,88.5c-8.4.1-26.7.1-37.2.1h-12.4v-1.1c7.6-6.2,15.1-12.4,22.5-18.6l26.3-22.3v-19h-64.4v13.8c8.4-.1,21.4-.1,30.9-.1h17.6v.6c-7,5.4-14.3,11.2-21.8,17.6l-27.1,23.6v19.1h65.5v-13.8h.1Z"/>
  <path id="Path-12" data-name="Path" class="cls-1" d="M1108.4,102.4h59.4v-13.6c-8.4.1-25,.1-35.9.1h-7.5v-18.2h8.1c8.4,0,23.1,0,28.9.1v-13h-37.1v-16.7h6.9c10.5,0,27.1,0,34.6.1v-13.6h-57.5c.1,4,.1,8.1.1,13.6v46.7c-.1,6-.1,10.4-.2,14.4h0Z"/>
  <path id="Path-13" data-name="Path" class="cls-1" d="M503,137.8c.1,2.7.1,5.6.1,9.3v31.9c0,4.1,0,7-.1,9.9v1h12.9v-1c-.1-3-.1-5.9-.1-9.9v-9h24.6v-11.1h-24.6v-11.1h27.8v-11.2h-40.6v1.2h0Z"/>
  <path id="Shape-3" data-name="Shape" class="cls-1" d="M573.4,135.9c-19.7,0-26.3,6.6-26.3,26.4v2.3c0,19.8,6.6,26.4,26.3,26.4s26.3-6.6,26.3-26.4v-2.3c0-19.8-6.6-26.4-26.3-26.4ZM560.1,163.2c0-12.7,2.6-15.6,13.3-15.6s13.3,2.8,13.3,15.6v.5c0,12.9-2.3,15.7-13.3,15.7s-13.3-2.8-13.3-15.7v-.5Z"/>
  <path id="Shape-4" data-name="Shape" class="cls-1" d="M651.3,177.2c-.6-1.1-1.3-2.2-1.9-3.3s-1.2-2-1.8-3.1c6.6-2.2,9.4-7.2,9.4-16.1v-.3c0-12.6-5.4-17.5-19.5-17.5h-29v1c.1,2.7.1,5.6.1,9.3v31.9c0,4.1,0,7.2-.1,9.9v1h12.9v-1c-.1-2.9-.1-5.9-.1-9.9v-6.1h13.7l4.7,8.1c1.1,1.9,2.1,3.8,3.1,5.7l1.7,3.1h14.5l-.9-1.4c-2.2-3.6-4.6-7.5-6.7-11.4v.2ZM621.4,148.1h14.6c6.2,0,8.1,1.5,8.1,6.8s-2,7.2-8.2,7.2h-14.5v-14h0Z"/>
  <path id="Shape-5" data-name="Shape" class="cls-1" d="M716.2,137h-28.6v1c.1,3,.1,5.4.1,9.1v32.3c0,4.1,0,6.5-.1,9.8v1h12.9v-1c-.1-3.3-.1-5.9-.1-9.8v-4.4h15.8c13.8,0,19.4-5.6,19.4-18.9v-.3c0-13.5-5.4-18.7-19.4-18.7h0ZM700.4,148.1h14.2c6.2,0,8,1.7,8,7.8s-1.9,7.8-8,7.8h-14.2v-15.6Z"/>
  <path id="Path-14" data-name="Path" class="cls-1" d="M760.6,179h-4.2v-10.7h25.4v-10.7h-25.4v-9.6h28.4v-11.1h-41.2v1c.1,2.7.1,5.6.1,9.3v31.9c0,4.1,0,7.2-.1,9.9v1h42.5v-11.1h-1c-5.7,0-17,0-24.6.1h0Z"/>
  <path id="Shape-6" data-name="Shape" class="cls-1" d="M826.8,137.6l-.2-.6h-18.5l-.2.6c-3.8,11.2-14.8,41.7-18.5,51.3l-.5,1.2h13.7l3.2-9.6h22.3l3.1,9.6h14l-.4-1.2c-3.5-9.8-14.2-40.3-17.9-51.3ZM818.1,148.6c1.1,3.3,2.2,7,3.5,11l3.1,9.8h-15.1l1.2-3.6c1.9-6.1,3.8-12.1,5.4-17.2h1.8Z"/>
  <path id="Path-15" data-name="Path" class="cls-1" d="M885.1,167.8v1c0,8.1-1.7,10.6-12.7,10.6s-13-2.8-13-15.7v-.5c0-12.7,2.5-15.6,13-15.6s12.6,2.3,12.6,10.6v1l12.5-.4v-.9c.1-8.1-1.4-13.2-4.6-16.6-3.7-3.7-9.9-5.3-20.7-5.3-19.3,0-25.8,6.6-25.8,26.4v2.3c0,19.8,6.5,26.4,25.8,26.4s17-1.6,20.7-5.4c3.3-3.4,4.8-8.4,4.7-16.4v-.9l-12.5-.4h0Z"/>
  <path id="Path-16" data-name="Path" class="cls-1" d="M923.4,179h-4.2v-10.7h25.4v-10.7h-25.4v-9.6h28.4v-11.1h-41.2v1c.1,2.7.1,5.6.1,9.3v31.9c0,4.1,0,7.2-.1,9.9v1h42.5v-11.1h-1c-5.8,0-17.1,0-24.6.1h0Z"/>
  <path id="Path-17" data-name="Path" class="cls-1" d="M953.2,148.6h1c6.2-.1,10-.1,12.9-.1h5.3v41.4h12.7v-1c-.1-3-.1-5.9-.1-9.9v-30.5h19.2v-11.6h-51v11.7h0Z"/>
  <path id="Path-18" data-name="Path" class="cls-1" d="M1028.3,179h-4.2v-10.7h25.4v-10.7h-25.4v-9.6h28.4v-11.1h-41.2v1c.1,2.7.1,5.6.1,9.3v31.9c0,4.1,0,7.2-.1,9.9v1h42.5v-11.1h-1c-5.7,0-17,0-24.6.1h0Z"/>
  <path id="Path-19" data-name="Path" class="cls-1" d="M1097.9,167.8v1c0,8.1-1.7,10.6-12.7,10.6s-13-2.8-13-15.7v-.5c0-12.7,2.5-15.6,13-15.6s12.6,2.3,12.6,10.6v1l12.6-.3v-.9c.1-8.1-1.4-13.2-4.6-16.6-3.7-3.7-9.9-5.3-20.7-5.3-19.3,0-25.8,6.6-25.8,26.4v2.3c0,19.8,6.5,26.4,25.8,26.4s17-1.6,20.7-5.4c3.3-3.4,4.8-8.4,4.7-16.4v-.9l-12.6-.5h0Z"/>
  <path id="Path-20" data-name="Path" class="cls-1" d="M1168.1,179.2v-42.2h-12.9v1c.1,2.8.1,5.6.1,9.3v9.8h-23.5v-20.1h-12.9v1c.1,2.8.1,5.6.1,9.3v31.9c0,4.1,0,7-.1,9.9v1h12.9v-1c-.1-3-.1-5.9-.1-9.9v-10.8h23.5v10.8c0,4.1,0,7-.1,9.9v1h12.9v-1c.1-3,.1-5.9.1-9.9h0Z"/>
  <g>
    <path class="cls-1" d="M1150.8,10.2h1.2c.1.3.2.7.4,1.1s.5.5,1,.7.9.3,1.4.3.9-.1,1.2-.2.6-.3.7-.5.2-.5.2-.7c0-.3-.1-.5-.2-.7s-.4-.4-.9-.5c-.2-.1-.7-.2-1.6-.4s-1.4-.4-1.8-.5c-.4-.2-.7-.5-1-.9s-.3-.7-.3-1.2.1-.9.4-1.3.6-.7,1.2-1,1.1-.3,1.7-.3,1.3.1,1.8.3,1,.5,1.2,1,.4.9.4,1.5h-1.2c-.1-.4-.3-1-.6-1.2s-.9-.4-1.6-.4-1.3.1-1.6.4-.5.6-.5,1,.1.6.3.9.9.4,1.8.6,1.7.4,2,.5c.5.2,1,.5,1.2,1s.4.9.4,1.3-.1,1-.4,1.4-.6.7-1.2,1-1.1.3-1.8.3-1.5-.1-2.1-.3-1-.6-1.3-1.1-.3-1.3-.4-1.9Z"/>
    <path class="cls-1" d="M1159.8,13.2V4h1.8l2.1,6.5c.2.6.3,1.1.4,1.4.1-.3.2-.9.5-1.5l2.2-6.4h1.6v9.2h-1.2v-7.7l-2.7,7.7h-1.1l-2.7-7.8v7.8h-1.2Z"/>
  </g>
</svg>