<?xml version="1.0" encoding="UTF-8"?>
<svg viewBox="0 0 701 374" version="1.1" xmlns="http://www.w3.org/2000/svg" xmlns:xlink="http://www.w3.org/1999/xlink">
    <title>Logo</title>
    <g id="Page-1" stroke="none" stroke-width="1" fill="none" fill-rule="evenodd">
        <g id="Kluz-Prize-for-PeaceTech-Light" transform="translate(-111, -188)" fill="#FFFFFF" fill-rule="nonzero">
            <g id="Logo" transform="translate(111.4275, 188.1837)">
                <polygon id="Path" points="197.088871 148.811138 89.322846 148.811138 77.8410632 160.292921 197.088871 160.292921"></polygon>
                <polygon id="Path" points="229.183618 160.292921 352.997017 160.292921 352.997017 187.822078 364.478799 176.340295 364.478799 148.811138 240.665401 148.811138 240.665401 106.229093 229.183618 117.665672"></polygon>
                <polygon id="Path" points="426.272489 38.9657355 426.272489 16.0473737 291.926589 16.0473737 213.136244 94.8377181 134.3459 16.0473737 7.10542736e-14 16.0473737 7.10542736e-14 38.9657355 124.853087 38.9657355 201.654462 115.76711 201.654462 164.858512 77.8410632 164.858512 77.8410632 187.822078 348.431426 187.822078 348.431426 164.858512 224.618027 164.858512 224.618027 115.76711 301.419402 38.9657355"></polygon>
                <polygon id="Path" points="213.136244 88.3283609 225.296085 76.2137239 149.082361 5.68434189e-14 149.082361 5.68434189e-14 11.4817828 5.68434189e-14 1.42108547e-14 11.436579 136.244463 11.436579"></polygon>
                <polygon id="Path" points="442.319863 0 304.719284 0 304.719284 0 293.282705 11.436579 430.83808 11.436579 430.83808 38.9657355 442.319863 27.5291565"></polygon>
                <path d="M77.6602477,290.344453 L92.7583401,290.344453 C92.6679324,286.321309 92.6679324,282.343369 92.6679324,276.738089 L92.6679324,260.961938 L101.347075,260.961938 C104.511346,265.30151 107.268782,268.872615 109.935811,272.127294 L124.807884,290.389657 L143.522286,290.389657 L143.612693,290.208842 C133.080192,278.184613 122.818913,265.934364 112.648043,253.819727 C120.920351,244.055691 132.266522,231.353404 141.849742,220.594883 L141.759335,220.414067 L123.496971,220.414067 L110.659072,235.51216 C107.811229,238.947654 104.737366,243.10641 100.804629,248.350059 L92.6227285,248.350059 L92.6227285,233.161559 C92.6227285,228.053521 92.6227285,224.165989 92.7131362,220.459271 L77.6150438,220.459271 C77.7054516,224.211192 77.7054516,228.053521 77.7054516,233.161559 L77.7054516,276.8737 C77.7054516,282.47898 77.7054516,286.547328 77.6150438,290.480065 L77.6602477,290.344453 Z" id="Path"></path>
                <path d="M151.885001,290.344453 L204.366694,290.344453 L204.366694,276.828497 C196.456017,276.918904 188.997378,276.918904 182.081186,276.918904 L166.892686,276.918904 L166.892686,232.845132 C166.892686,227.827502 166.892686,224.075581 166.983094,220.32366 L151.885001,220.32366 C151.975409,224.075581 151.975409,227.91791 151.975409,233.161559 L151.975409,276.557273 C151.975409,282.162553 151.975409,286.411717 151.885001,290.344453 L151.885001,290.344453 Z" id="Path"></path>
                <path d="M276.647681,261.142754 C276.647681,252.554019 276.557273,245.547419 276.557273,240.348974 L276.557273,232.935539 C276.557273,227.827502 276.557273,223.668746 276.647681,220.32366 L261.549589,220.32366 C261.639996,223.668746 261.639996,228.008318 261.639996,232.754724 L261.639996,260.374288 C261.639996,274.975138 257.797667,278.410632 243.965283,278.410632 C230.132899,278.410632 226.29057,274.975138 226.29057,260.374288 L226.29057,220.32366 L211.282886,220.32366 C211.373294,223.668746 211.373294,227.827502 211.373294,233.025947 L211.373294,240.30377 C211.373294,245.411807 211.282886,252.554019 211.282886,261.09755 C211.282886,284.061116 218.967544,291.655366 243.92008,291.655366 C268.872615,291.655366 276.557273,284.061116 276.557273,261.09755 L276.647681,261.142754 Z" id="Path"></path>
                <path d="M349.425911,277.325739 C341.515234,277.416147 324.473375,277.416147 314.618931,277.416147 L303.001537,277.416147 L303.001537,276.421662 C310.098544,270.590363 317.105144,264.804267 324.111744,258.972968 L348.747853,238.043577 L348.747853,220.278456 L288.491095,220.278456 L288.491095,233.206762 C296.401772,233.116355 308.516409,233.116355 317.376367,233.116355 L333.830576,233.116355 L333.830576,233.704005 C327.230811,238.812042 320.405027,244.236507 313.398427,250.248621 L288.039056,272.353313 L288.039056,290.29925 L349.380707,290.29925 L349.380707,277.280535 L349.425911,277.325739 Z" id="Path"></path>
                <path d="M456.152247,244.598138 C456.152247,226.923425 449.236055,220.32366 430.792876,220.32366 L393.002441,220.32366 C393.092849,224.482416 393.092849,227.737094 393.092849,232.754724 L393.092849,276.828497 C393.092849,282.433776 393.092849,285.824067 393.002441,290.344453 L408.100533,290.344453 C408.010126,285.824067 408.010126,282.343369 408.010126,276.828497 L408.010126,269.641081 L430.792876,269.641081 C449.236055,269.641081 456.152247,262.634482 456.152247,245.004972 L456.152247,244.598138 L456.152247,244.598138 Z M440.873339,245.004972 C440.873339,254.000542 437.61866,256.848386 428.62309,256.848386 L408.010126,256.848386 L408.010126,233.071151 L428.62309,233.071151 C437.61866,233.071151 440.873339,235.738179 440.873339,244.824157 L440.873339,245.004972 Z" id="Shape"></path>
                <path d="M467.40801,290.344453 L482.506103,290.344453 C482.415695,286.411717 482.415695,282.343369 482.415695,276.738089 L482.415695,267.245276 L502.847844,267.245276 L509.673628,278.998282 C511.843414,282.931019 514.0132,286.773348 516.00217,290.344453 L532.863213,290.344453 C529.608534,285.236416 526.444264,279.90236 523.59642,274.749119 C521.517042,271.178013 519.663683,267.832926 517.765121,264.668656 C527.845584,261.820812 531.281078,254.995028 531.281078,243.377633 L531.281078,242.970798 C531.281078,225.92894 523.867643,220.278456 505.831299,220.278456 L467.453214,220.278456 C467.543622,223.939969 467.543622,227.872706 467.543622,232.980743 L467.543622,276.692885 C467.543622,282.298165 467.543622,286.456921 467.453214,290.29925 L467.40801,290.344453 Z M482.415695,233.025947 L503.61631,233.025947 C512.61188,233.025947 515.956966,235.51216 515.956966,243.377633 L515.956966,243.558449 C515.956966,251.559533 512.61188,254.588193 503.435494,254.588193 L482.415695,254.588193 L482.415695,232.980743 L482.415695,233.025947 Z" id="Shape"></path>
                <path d="M543.034084,290.344453 L558.493807,290.344453 C558.403399,286.321309 558.403399,282.343369 558.403399,276.738089 L558.403399,233.025947 C558.403399,227.91791 558.403399,224.030377 558.493807,220.32366 L543.034084,220.32366 C543.124491,224.075581 543.124491,227.91791 543.124491,233.025947 L543.124491,276.738089 C543.124491,282.343369 543.124491,286.411717 543.034084,290.344453 Z" id="Path"></path>
                <path d="M632.085707,277.325739 C624.175029,277.416147 607.133171,277.416147 597.278727,277.416147 L585.661333,277.416147 L585.661333,276.421662 C592.75834,270.590363 599.76494,264.804267 606.77154,258.972968 L631.407648,238.043577 L631.407648,220.278456 L571.150891,220.278456 L571.150891,233.206762 C579.061568,233.116355 591.176205,233.116355 600.036163,233.116355 L616.490372,233.116355 L616.490372,233.704005 C609.890607,238.812042 603.064822,244.236507 596.058223,250.248621 L570.698852,272.353313 L570.698852,290.29925 L632.040503,290.29925 L632.040503,277.280535 L632.085707,277.325739 Z" id="Path"></path>
                <path d="M644.381159,290.344453 L699.981918,290.344453 L699.981918,277.642166 C692.071241,277.732574 676.611518,277.732574 666.35024,277.732574 L659.34364,277.732574 L659.34364,260.781123 L666.93789,260.781123 C674.848567,260.781123 688.545339,260.781123 694.060212,260.871531 L694.060212,248.666486 L659.34364,248.666486 L659.34364,232.980743 L665.852997,232.980743 C675.617033,232.980743 691.302776,232.980743 698.218968,233.071151 L698.218968,220.368864 L644.381159,220.368864 C644.471567,224.030377 644.471567,227.963114 644.471567,233.071151 L644.471567,276.783293 C644.471567,282.388572 644.471567,286.547328 644.381159,290.389657 L644.381159,290.344453 Z" id="Path"></path>
                <path d="M77.6150438,323.524094 C77.7054516,326.010306 77.7054516,328.722539 77.7054516,332.203237 L77.7054516,362.128198 C77.7054516,365.970527 77.7054516,368.727963 77.6150438,371.440195 L77.6150438,372.299069 C77.6150438,372.299069 89.684477,372.299069 89.684477,372.299069 L89.684477,371.440195 C89.5940693,368.682759 89.5940693,365.970527 89.5940693,362.128198 L89.5940693,353.765482 L92.3967092,353.765482 C96.9623,353.765482 107.585209,353.765482 111.698761,353.810686 L112.557635,353.810686 C112.557635,353.810686 112.557635,343.459 112.557635,343.459 L89.5940693,343.459 L89.5940693,333.06211 L96.5102613,333.06211 C103.607269,333.06211 109.935811,333.06211 114.682217,333.107314 L115.54109,333.107314 C115.54109,333.107314 115.54109,322.574812 115.54109,322.574812 L77.6150438,322.574812 L77.6150438,323.433686 L77.6150438,323.524094 Z" id="Path"></path>
                <path d="M143.477082,321.715939 C125.079107,321.715939 118.840973,327.954073 118.840973,346.397252 L118.840973,348.567037 C118.840973,367.05542 125.033903,373.24835 143.477082,373.24835 C161.92026,373.24835 168.11319,367.010216 168.11319,348.567037 L168.11319,346.397252 C168.11319,327.908869 161.92026,321.715939 143.477082,321.715939 Z M131.000814,347.210921 C131.000814,335.322304 133.351415,332.564868 143.477082,332.564868 C153.602748,332.564868 155.95335,335.141488 155.95335,347.210921 L155.95335,347.753368 C155.95335,359.822801 153.73836,362.444625 143.477082,362.444625 C133.215803,362.444625 131.000814,359.822801 131.000814,347.753368 L131.000814,347.210921 Z" id="Shape"></path>
                <path d="M216.436127,360.410451 C215.803273,359.370762 215.260826,358.331073 214.673176,357.336588 C214.085526,356.342103 213.543079,355.392822 213.000633,354.44354 C219.193563,352.318959 221.815387,347.753368 221.815387,339.345448 L221.815387,339.074225 C221.815387,327.276015 216.70735,322.66522 203.553024,322.66522 L176.385499,322.66522 L176.385499,323.524094 C176.475906,326.010306 176.475906,328.722539 176.475906,332.203237 L176.475906,362.128198 C176.475906,365.970527 176.475906,368.818371 176.385499,371.440195 L176.385499,372.299069 C176.385499,372.299069 188.454932,372.299069 188.454932,372.299069 L188.454932,371.440195 C188.364524,368.727963 188.364524,365.970527 188.364524,362.128198 L188.364524,356.477714 L201.021607,356.477714 L205.451587,364.071965 C206.446072,365.880119 207.440557,367.64307 208.389838,369.360817 L210.017177,372.253865 L223.623542,372.253865 L222.809873,370.942953 C220.685291,367.552663 218.515505,363.981557 216.481331,360.27484 L216.436127,360.410451 Z M188.364524,333.107314 L202.061296,333.107314 C207.892596,333.107314 209.655547,334.553838 209.655547,339.48106 C209.655547,344.408281 207.71178,346.216436 201.925685,346.216436 L188.364524,346.216436 L188.364524,333.107314 L188.364524,333.107314 Z" id="Shape"></path>
                <path d="M277.190127,322.66522 L250.429437,322.66522 L250.429437,323.524094 C250.519844,326.326734 250.519844,328.586927 250.519844,332.022421 L250.519844,362.218606 C250.519844,366.060935 250.519844,368.366332 250.429437,371.440195 L250.429437,372.299069 C250.429437,372.299069 262.49887,372.299069 262.49887,372.299069 L262.49887,371.440195 C262.408462,368.321128 262.408462,365.970527 262.408462,362.218606 L262.408462,358.150258 L277.190127,358.150258 C290.118434,358.150258 295.407287,352.997017 295.407287,340.430341 L295.407287,340.159118 C295.407287,327.592442 290.29925,322.710424 277.190127,322.710424 L277.190127,322.66522 Z M262.408462,333.06211 L275.6984,333.06211 C281.529699,333.06211 283.247446,334.689449 283.247446,340.385137 C283.247446,346.080825 281.484495,347.66296 275.6984,347.66296 L262.408462,347.66296 L262.408462,333.06211 Z" id="Shape"></path>
                <path d="M318.822891,361.992587 L314.890155,361.992587 L314.890155,352.047735 L319.229726,352.047735 C324.744598,352.047735 334.011391,352.047735 337.808516,352.092939 L338.66739,352.092939 C338.66739,352.092939 338.66739,342.012476 338.66739,342.012476 L314.890155,342.012476 L314.890155,332.971702 L318.506464,332.971702 C325.015821,332.971702 335.955158,332.971702 340.65636,333.016906 L341.515234,333.016906 C341.515234,333.016906 341.515234,322.620016 341.515234,322.620016 L302.911129,322.620016 L302.911129,323.47889 C303.001537,325.965103 303.001537,328.677335 303.001537,332.158033 L303.001537,362.082994 C303.001537,365.925323 303.001537,368.773167 302.911129,371.394991 L302.911129,372.253865 C302.911129,372.253865 342.735738,372.253865 342.735738,372.253865 L342.735738,361.856975 L341.876865,361.856975 C336.4524,361.947383 325.874695,361.947383 318.822891,361.947383 L318.822891,361.992587 Z" id="Path"></path>
                <path d="M380.797396,323.25287 L380.616581,322.66522 L363.303499,322.66522 L363.122683,323.25287 C359.506374,333.740168 349.245095,362.218606 345.809601,371.214176 L345.357563,372.344273 L358.150258,372.344273 L361.133713,363.303499 L382.017901,363.303499 L384.910948,372.344273 L398.020071,372.344273 L397.613236,371.214176 C394.268149,362.082994 384.278094,333.64976 380.797396,323.25287 Z M372.570292,333.559353 C373.564777,336.67842 374.694874,340.204321 375.824971,343.865835 L378.718018,353.087424 L364.569207,353.087424 L365.699304,349.65193 C367.462255,344.001447 369.27041,338.305759 370.762137,333.559353 L372.570292,333.559353 L372.570292,333.559353 Z" id="Shape"></path>
                <path d="M435.358467,351.6409 L435.358467,352.499774 C435.358467,360.094024 433.731127,362.444625 423.424645,362.444625 C413.118163,362.444625 411.2196,359.822801 411.2196,347.753368 L411.2196,347.210921 C411.2196,335.322304 413.479794,332.564868 423.424645,332.564868 C433.369496,332.564868 435.268059,334.779857 435.268059,342.464515 L435.268059,343.323388 L447.021065,343.006961 L447.021065,342.193292 C447.111473,334.599042 445.755357,329.807432 442.681494,326.688365 C439.200796,323.162463 433.4147,321.670735 423.289034,321.670735 C405.162282,321.670735 399.05976,327.908869 399.05976,346.352048 L399.05976,348.521833 C399.05976,367.010216 405.162282,373.203146 423.289034,373.203146 C433.369496,373.203146 439.155592,371.666215 442.726697,368.095109 C445.845764,364.930838 447.20188,360.184432 447.111473,352.680589 L447.111473,351.86692 C447.111473,351.86692 435.358467,351.550493 435.358467,351.550493 L435.358467,351.6409 Z" id="Path"></path>
                <path d="M471.159931,361.992587 L467.227195,361.992587 L467.227195,352.047735 L471.566766,352.047735 C477.081638,352.047735 486.348431,352.047735 490.145556,352.092939 L491.00443,352.092939 C491.00443,352.092939 491.00443,342.012476 491.00443,342.012476 L467.227195,342.012476 L467.227195,332.971702 L470.843504,332.971702 C477.352861,332.971702 488.292198,332.971702 492.9934,333.016906 L493.852274,333.016906 C493.852274,333.016906 493.852274,322.620016 493.852274,322.620016 L455.248169,322.620016 L455.248169,323.47889 C455.338577,325.965103 455.338577,328.677335 455.338577,332.158033 L455.338577,362.082994 C455.338577,365.925323 455.338577,368.773167 455.248169,371.394991 L455.248169,372.253865 C455.248169,372.253865 495.072778,372.253865 495.072778,372.253865 L495.072778,361.856975 L494.213905,361.856975 C488.78944,361.947383 478.211735,361.947383 471.159931,361.947383 L471.159931,361.992587 Z" id="Path"></path>
                <path d="M499.050719,333.604557 L499.909592,333.604557 C505.740891,333.514149 509.311997,333.514149 511.979025,333.514149 L516.951451,333.514149 L516.951451,362.128198 C516.951451,365.970527 516.951451,368.727963 516.906247,371.440195 L516.906247,372.299069 C516.906247,372.299069 528.97568,372.299069 528.97568,372.299069 L528.97568,371.440195 C528.885273,368.682759 528.885273,365.970527 528.885273,362.128198 L528.885273,333.514149 L534.806979,333.514149 C537.519212,333.514149 541.135521,333.514149 546.017539,333.559353 L546.876413,333.559353 C546.876413,333.559353 546.876413,322.620016 546.876413,322.620016 L499.095923,322.620016 L499.095923,333.559353 L499.050719,333.604557 Z" id="Path"></path>
                <path d="M569.433143,361.992587 L565.500407,361.992587 L565.500407,352.047735 L569.839978,352.047735 C575.35485,352.047735 584.621644,352.047735 588.418769,352.092939 L589.277642,352.092939 C589.277642,352.092939 589.277642,342.012476 589.277642,342.012476 L565.500407,342.012476 L565.500407,332.971702 L569.116716,332.971702 C575.626074,332.971702 586.56541,332.971702 591.266612,333.016906 L592.125486,333.016906 C592.125486,333.016906 592.125486,322.620016 592.125486,322.620016 L553.521381,322.620016 L553.521381,323.47889 C553.611789,325.965103 553.611789,328.677335 553.611789,332.158033 L553.611789,362.082994 C553.611789,365.925323 553.611789,368.773167 553.521381,371.394991 L553.521381,372.253865 C553.521381,372.253865 593.34599,372.253865 593.34599,372.253865 L593.34599,361.856975 L592.487117,361.856975 C587.062653,361.947383 576.484947,361.947383 569.433143,361.947383 L569.433143,361.992587 Z" id="Path"></path>
                <path d="M634.571919,351.6409 L634.571919,352.499774 C634.571919,360.094024 632.94458,362.444625 622.638098,362.444625 C612.331616,362.444625 610.433053,359.822801 610.433053,347.753368 L610.433053,347.210921 C610.433053,335.322304 612.693247,332.564868 622.638098,332.564868 C632.582949,332.564868 634.481512,334.779857 634.481512,342.464515 L634.481512,343.323388 L646.234518,343.006961 L646.234518,342.193292 C646.324925,334.599042 644.968809,329.807432 641.894946,326.688365 C638.414248,323.162463 632.628153,321.670735 622.502486,321.670735 C604.375735,321.670735 598.273212,327.908869 598.273212,346.352048 L598.273212,348.521833 C598.273212,367.010216 604.375735,373.203146 622.502486,373.203146 C632.582949,373.203146 638.369044,371.666215 641.94015,368.095109 C645.059217,364.930838 646.415333,360.184432 646.324925,352.680589 L646.324925,351.86692 C646.324925,351.86692 634.571919,351.550493 634.571919,351.550493 L634.571919,351.6409 Z" id="Path"></path>
                <path d="M700.343549,362.173402 L700.343549,332.24844 C700.343549,328.722539 700.343549,326.100714 700.388753,323.569298 L700.388753,322.710424 C700.388753,322.710424 688.31932,322.710424 688.31932,322.710424 L688.31932,323.569298 C688.409728,326.145918 688.409728,328.767743 688.409728,332.24844 L688.409728,341.47003 L666.395443,341.47003 L666.395443,332.24844 C666.395443,328.722539 666.395443,326.100714 666.440647,323.569298 L666.440647,322.710424 C666.440647,322.710424 654.371214,322.710424 654.371214,322.710424 L654.371214,323.569298 C654.461622,326.145918 654.461622,328.767743 654.461622,332.24844 L654.461622,362.173402 C654.461622,366.015731 654.461622,368.773167 654.371214,371.485399 L654.371214,372.344273 C654.371214,372.344273 666.440647,372.344273 666.440647,372.344273 L666.440647,371.485399 C666.35024,368.727963 666.35024,366.015731 666.35024,362.173402 L666.35024,352.092939 L688.364524,352.092939 L688.364524,362.173402 C688.364524,366.015731 688.364524,368.773167 688.274116,371.485399 L688.274116,372.344273 C688.274116,372.344273 700.343549,372.344273 700.343549,372.344273 L700.343549,371.485399 C700.253142,368.727963 700.253142,366.015731 700.253142,362.173402 L700.343549,362.173402 Z" id="Path"></path>
            </g>
        </g>
    </g>
</svg>