<svg enable-background="new 0 0 701 374" viewBox="0 0 701 374" xmlns="http://www.w3.org/2000/svg"><g fill="#fff"><g transform="translate(.4275 .1837)"><path d="m197.1 148.8h-107.8l-11.5 11.5h119.3z"/><path d="m229.2 160.3h123.8v27.5l11.5-11.5v-27.5h-123.8v-42.6l-11.5 11.5z"/><path d="m426.3 39v-23h-134.4l-78.8 78.8-78.8-78.8h-134.3v23h124.9l76.8 76.8v49.1h-123.9v22.9h270.6v-22.9h-123.8v-49.1l76.8-76.8z"/><path d="m213.1 88.3 12.2-12.1-76.2-76.2h-137.6l-11.5 11.4h136.2z"/><path d="m442.3 0h-137.6l-11.4 11.4h137.5v27.6l11.5-11.5z"/><path d="m77.7 290.3h15.1c-.1-4-.1-8-.1-13.6v-15.7h8.7c3.2 4.3 5.9 7.9 8.6 11.2l14.9 18.3h18.7l.1-.2c-10.5-12-20.8-24.3-31-36.4 8.3-9.8 19.6-22.5 29.2-33.2l-.1-.2h-18.3l-12.8 15.1c-2.8 3.4-5.9 7.6-9.9 12.8h-8.2v-15.2c0-5.1 0-9 .1-12.7h-15.1c.1 3.8.1 7.6.1 12.7v43.7c0 5.6 0 9.7-.1 13.6z"/><path d="m151.9 290.3h52.5v-13.5c-7.9.1-15.4.1-22.3.1h-15.2v-44.1c0-5 0-8.8.1-12.5h-15.1c.1 3.8.1 7.6.1 12.8v43.4c0 5.7 0 9.9-.1 13.8z"/><path d="m276.6 261.1c0-8.6-.1-15.6-.1-20.8v-7.4c0-5.1 0-9.3.1-12.6h-15.1c.1 3.3.1 7.7.1 12.4v27.6c0 14.6-3.8 18-17.7 18s-17.7-3.4-17.7-18v-40.1h-15c.1 3.3.1 7.5.1 12.7v7.3c0 5.1-.1 12.3-.1 20.8 0 23 7.7 30.6 32.6 30.6s32.8-7.5 32.8-30.5z"/><path d="m349.4 277.3c-7.9.1-25 .1-34.8.1h-11.6v-1c7.1-5.8 14.1-11.6 21.1-17.4l24.6-20.9v-17.8h-60.3v12.9c7.9-.1 20-.1 28.9-.1h16.5v.6c-6.6 5.1-13.4 10.5-20.4 16.5l-25.4 22.2v17.9h61.3z"/><path d="m456.2 244.6c0-17.7-6.9-24.3-25.4-24.3h-37.8c.1 4.2.1 7.4.1 12.4v44.1c0 5.6 0 9-.1 13.5h15.1c-.1-4.5-.1-8-.1-13.5v-7.2h22.8c18.4 0 25.4-7 25.4-24.6zm-15.3.4c0 9-3.3 11.8-12.3 11.8h-20.6v-23.8h20.6c9 0 12.3 2.7 12.3 11.8z"/><path d="m467.4 290.3h15.1c-.1-3.9-.1-8-.1-13.6v-9.5h20.4l6.8 11.8c2.2 3.9 4.3 7.8 6.3 11.3h16.9c-3.3-5.1-6.4-10.4-9.3-15.6-2.1-3.6-3.9-6.9-5.8-10.1 10.1-2.8 13.5-9.7 13.5-21.3v-.3c0-17-7.4-22.7-25.4-22.7h-38.4c.1 3.7.1 7.6.1 12.7v43.7c-0 5.6-0 9.8-.1 13.6zm15-57.3h21.2c9 0 12.3 2.5 12.3 10.4v.2c0 8-3.3 11-12.5 11h-21z"/><path d="m543 290.3h15.5c-.1-4-.1-8-.1-13.6v-43.7c0-5.1 0-9 .1-12.7h-15.5c.1 3.8.1 7.6.1 12.7v43.7c0 5.6 0 9.7-.1 13.6z"/><path d="m632.1 277.3c-7.9.1-25 .1-34.8.1h-11.6v-1c7.1-5.8 14.1-11.6 21.1-17.4l24.6-20.9v-17.8h-60.3v12.9c7.9-.1 20-.1 28.9-.1h16.5v.6c-6.6 5.1-13.4 10.5-20.4 16.5l-25.4 22.1v17.9h61.3z"/><path d="m644.4 290.3h55.6v-12.7c-7.9.1-23.4.1-33.6.1h-7v-17h7.6c7.9 0 21.6 0 27.1.1v-12.2h-34.7v-15.6h6.5c9.8 0 25.4 0 32.4.1v-12.7h-53.8c.1 3.7.1 7.6.1 12.7v43.7c-.1 5.6-.1 9.7-.2 13.5z"/><path d="m77.6 323.5c.1 2.5.1 5.2.1 8.7v29.9c0 3.8 0 6.6-.1 9.3v.9h12.1v-.9c-.1-2.8-.1-5.5-.1-9.3v-8.4h2.8 19.3.9v-10.4h-23v-10.4h6.9 18.2.9v-10.5h-38z"/><path d="m143.5 321.7c-18.4 0-24.6 6.2-24.6 24.7v2.2c0 18.5 6.2 24.7 24.6 24.7s24.6-6.2 24.6-24.7v-2.2c0-18.5-6.2-24.7-24.6-24.7zm-12.5 25.5c0-11.9 2.4-14.6 12.5-14.6s12.5 2.6 12.5 14.6v.5c0 12.1-2.2 14.7-12.5 14.7s-12.5-2.6-12.5-14.7z"/><path d="m216.4 360.4c-.6-1-1.2-2.1-1.8-3.1s-1.1-1.9-1.7-2.9c6.2-2.1 8.8-6.7 8.8-15.1v-.3c0-11.8-5.1-16.4-18.3-16.4h-27.2v.9c.1 2.5.1 5.2.1 8.7v29.9c0 3.8 0 6.7-.1 9.3v.9h12.1v-.9c-.1-2.7-.1-5.5-.1-9.3v-5.7h12.8l4.4 7.6c1 1.8 2 3.6 2.9 5.3l1.6 2.9h13.6l-.8-1.3c-2.1-3.4-4.3-7-6.3-10.7zm-28-27.3h13.7c5.8 0 7.6 1.4 7.6 6.4 0 4.9-1.9 6.7-7.7 6.7h-13.6z"/><path d="m277.2 322.7h-26.8v.9c.1 2.8.1 5.1.1 8.5v30.2c0 3.8 0 6.1-.1 9.2v.9h12.1v-.9c-.1-3.1-.1-5.5-.1-9.2v-4.1h14.8c12.9 0 18.2-5.2 18.2-17.7v-.3c0-12.6-5.1-17.5-18.2-17.5zm-14.8 10.4h13.3c5.8 0 7.5 1.6 7.5 7.3s-1.8 7.3-7.5 7.3h-13.3z"/><path d="m318.8 362h-3.9v-10h4.3 18.6.9v-10h-23.8v-9h3.6 22.1.9v-10.4h-38.6v.9c.1 2.5.1 5.2.1 8.7v29.9c0 3.8 0 6.7-.1 9.3v.9h39.8v-10.4h-.9c-5.3 0-15.9 0-23 .1z"/><path d="m380.8 323.3-.2-.6h-17.3l-.2.6c-3.6 10.5-13.9 39-17.3 48l-.5 1.1h12.8l3-9h20.9l2.9 9h13.1l-.4-1.1c-3.3-9.2-13.3-37.7-16.8-48zm-8.2 10.3c1 3.1 2.1 6.6 3.3 10.3l2.9 9.2h-14.1l1.1-3.4c1.8-5.7 3.6-11.3 5.1-16.1z"/><path d="m435.4 351.6v.9c0 7.6-1.6 9.9-11.9 9.9s-12.2-2.6-12.2-14.7v-.5c0-11.9 2.3-14.6 12.2-14.6s11.8 2.2 11.8 9.9v.9l11.7-.4v-.8c.1-7.6-1.3-12.4-4.3-15.5-3.5-3.5-9.3-5-19.4-5-18.1 0-24.2 6.2-24.2 24.7v2.2c0 18.5 6.1 24.7 24.2 24.7 10.1 0 15.9-1.5 19.4-5.1 3.1-3.2 4.5-7.9 4.4-15.4v-.8z"/><path d="m471.2 362h-3.9v-10h4.3 18.6.9v-10h-23.8v-9h3.6 22.1.9v-10.4h-38.6v.9c.1 2.5.1 5.2.1 8.7v29.9c0 3.8 0 6.7-.1 9.3v.9h39.8v-10.4h-.9c-5.4 0-16 0-23 .1z"/><path d="m499.1 333.6h.9c5.8-.1 9.4-.1 12.1-.1h5v28.6 9.3.9h11.9v-.9c-.1-2.8-.1-5.5-.1-9.3v-28.6h5.9 11.2.9v-10.9h-47.8z"/><path d="m569.4 362h-3.9v-10h4.3 18.6.9v-10h-23.8v-9h3.6 22.1.9v-10.4h-38.6v.9c.1 2.5.1 5.2.1 8.7v29.9c0 3.8 0 6.7-.1 9.3v.9h39.8v-10.4h-.9c-5.3 0-15.9 0-23 .1z"/><path d="m634.6 351.6v.9c0 7.6-1.6 9.9-11.9 9.9s-12.2-2.6-12.2-14.7v-.5c0-11.9 2.3-14.6 12.2-14.6s11.8 2.2 11.8 9.9v.9l11.8-.3v-.8c.1-7.6-1.3-12.4-4.3-15.5-3.5-3.5-9.3-5-19.4-5-18.1 0-24.2 6.2-24.2 24.7v2.2c0 18.5 6.1 24.7 24.2 24.7 10.1 0 15.9-1.5 19.4-5.1 3.1-3.2 4.5-7.9 4.4-15.4v-.8z"/><path d="m700.3 362.2v-29.9c0-3.5 0-6.1 0-8.7v-.9h-12.1v.9c.1 2.6.1 5.2.1 8.7v9.2h-22v-9.2c0-3.5 0-6.1 0-8.7v-.9h-12.1v.9c.1 2.6.1 5.2.1 8.7v29.9c0 3.8 0 6.6-.1 9.3v.9h12.1v-.9c-.1-2.8-.1-5.5-.1-9.3v-10.1h22v10.1c0 3.8 0 6.6-.1 9.3v.9h12.1v-.9c.1-2.8.1-5.5.1-9.3z"/></g><path d="m684.6 204.2 1.1-.1c.1.4.2.8.4 1.1s.5.5.9.7.8.3 1.3.3c.4 0 .8-.1 1.1-.2s.6-.3.7-.5.2-.5.2-.7c0-.3-.1-.5-.2-.7s-.4-.4-.8-.5c-.2-.1-.7-.2-1.5-.4s-1.3-.4-1.7-.5c-.4-.2-.7-.5-.9-.8s-.3-.7-.3-1.1.1-.8.4-1.2.6-.7 1.1-.9 1-.3 1.6-.3 1.2.1 1.7.3.9.5 1.1.9.4.8.4 1.4l-1.1.1c-.1-.5-.3-1-.6-1.2s-.8-.4-1.5-.4-1.2.1-1.5.4-.5.6-.5.9.1.6.3.8.8.4 1.7.6 1.6.4 1.9.5c.5.2.9.5 1.1.9s.4.8.4 1.2c0 .5-.1.9-.4 1.3s-.6.7-1.1.9-1 .3-1.7.3c-.8 0-1.4-.1-2-.3s-.9-.6-1.2-1-.3-1.2-.4-1.8z"/><path d="m693 207v-8.6h1.7l2 6.1c.2.6.3 1 .4 1.3.1-.3.2-.8.5-1.4l2.1-6h1.5v8.6h-1.1v-7.2l-2.5 7.2h-1l-2.5-7.3v7.3z"/></g></svg>