<svg fill="none" height="254" viewBox="0 0 602 254" width="602" xmlns="http://www.w3.org/2000/svg"><g fill="#08112e"><path d="m268.537 202.363h-146.553l-15.634 15.62h162.187z"/><path d="m312.176 217.983h168.304v37.353l15.634-15.62v-37.353h-168.304v-57.863l-15.634 15.62z"/><path d="m580.13 53.2226v-31.2407h-182.715l-107.127 107.0331-107.128-107.0331h-182.578945v31.2407h169.799945l104.408 104.3164v66.692h-168.44v31.105h367.877v-31.105h-168.304v-66.692l104.408-104.3164z"/><path d="m290.288 120.186 16.585-16.435-103.593-103.501488h-187.065l-15.634067 15.484488h185.162067z"/><path d="m601.882.249512h-187.065l-15.498 15.484488h186.929v37.4888l15.634-15.6203z"/></g></svg>