<svg fill="none" height="1725" width="1920" xmlns="http://www.w3.org/2000/svg" xmlns:xlink="http://www.w3.org/1999/xlink"><clipPath id="a"><path d="m0 0h1920v1725h-1920z"/></clipPath><g clip-path="url(#a)" fill="#282828" fill-opacity=".05"><path d="m253.7 80.37c3.318-2.56 6.635-5.489 10.69-9.15 9.95 9.15 20.639 18.668 31.697 28.548l1.105-1.097c-8.477-10.246-16.954-20.13-26.538-28.913-7.369-6.59-7.74-8.418-2.947-18.302 4.42-.731 7.001 1.832 9.582 4.758 15.112 14.275 30.224 28.55 45.701 42.457 2.213 2.195 4.794 3.661 8.108 6.589.372-4.757-2.578-6.223-4.422-8.417-12.163-12.813-23.957-25.622-36.12-38.432-.736-.731-1.473-1.097-1.841-1.828-1.845-3.66-3.686-8.052-5.899-11.347-2.21-3.294-5.156-5.858-7.369-9.152 15.478 7.32 26.167 20.861 40.542 31.476-.368-4.388-3.317-5.489-4.793-7.686-1.473-2.194-3.683-4.026-5.528-5.855-7.74-8.051-15.48-15.74-23.588-23.79-2.581-2.563-4.42-5.492-3.318-9.518 1.108-4.388 3.686-5.489 7.372-2.56 5.899 4.389 11.426 9.15 17.325 13.541.736.732 1.841 1.097 4.054.366-4.426-5.123-11.058-9.515-12.902-15.373-1.842-6.22-10.319-9.515-7.001-18.298 2.946 1.829 5.156 3.657 8.845 5.855-1.476-3.295-2.581-5.124-4.054-8.052 1.841.365 2.949.365 3.686 1.1 10.686 8.417 21.376 16.835 32.802 24.887-9.214-11.346-21.376-19.764-27.275-32.94 8.477 6.953 17.693 14.639 27.275 21.96 11.057 8.417 22.112 17.57 34.278 24.887 11.423 6.955 19.9 16.838 26.903 27.085 9.953 14.275 18.43 29.648 26.906 45.02 9.214 16.47 11.058 34.768 14.376 53.07 1.473 7.32 2.946 14.275 3.686 21.593 1.841 23.424 5.527 46.483 6.632 69.908.368 8.783.737 17.935.737 26.719 0 2.194-1.842 4.026-2.21 4.757.736 5.855 2.21 10.615 2.21 15.373.368 10.98-.369 21.593 0 32.573 0 11.713-2.579 23.791-4.791 35.503-4.055 20.13-10.69 39.528-19.903 57.461-12.899 24.159-26.535 47.949-45.333 68.445-13.27 14.273-26.906 28.548-44.228 38.429-13.27 7.686-27.643 12.446-42.386 17.204-23.589 7.32-47.178 4.391-70.766 1.828-16.217-1.828-32.066-4.391-47.175-10.246-14.375-5.858-29.487-10.981-40.913-22.327-11.426-11.347-21.376-24.156-31.329-36.6-5.895-7.321-11.423-15.007-15.848-23.059-6.264-10.981-12.163-22.693-16.954-34.405a382.801 382.801 0 0 1 -25.062-92.598c-1.473-11.713-1.473-23.791-2.21-35.503-.37-7.32-1.107-15.007-1.476-22.324-1.104-17.204-.736-34.409 1.845-51.244 2.21-14.273 2.578-28.548 5.156-42.455 3.689-20.13 11.429-39.162 19.906-57.829 7.003-15.739 15.112-30.746 22.852-46.115 9.581-19.033 23.585-34.04 39.434-47.95 15.852-13.906 33.173-25.253 53.444-31.476 19.535-5.855 39.437-8.052 59.34-3.292 8.109 1.83 15.849 5.12 21.376 11.713 6.635 8.418 7.372 18.298 4.054 28.182-1.105 3.657-1.844 8.052-2.581 11.712-.368 1.829 0 3.657-.368 5.12-2.21 9.884-4.42 19.768-6.632 29.282.736.366 1.105.366 1.841.732zm1.473 9.883c-1.104 2.926-2.578 4.392-2.209 5.49 4.054 10.98.736 20.861-3.686 30.745-.369.365 0 1.097 0 1.831-2.21 10.247-10.69 13.541-19.535 7.686-.736-.731-1.473-.731-2.581-1.1-2.946 1.463-6.264 2.929-9.213 4.761-1.842 1.097-3.318 2.56-4.791 4.026-19.903 18.298-34.278 39.894-41.279 65.879-1.473 5.489-2.212 10.98-3.685 16.104-3.686 14.275-7.004 28.913-8.109 43.92-2.21 29.282.368 57.83 8.109 86.012 2.946 10.249 6.632 20.13 11.054 29.279 4.794 9.884 10.69 20.13 22.116 24.156 9.213 3.295 19.166 6.224 28.748 7.686 12.53 1.832 24.325-1.462 35.383-8.783 16.953-10.981 28.747-26.353 39.805-42.823 13.268-19.764 18.798-42.089 19.903-65.513 1.841-36.603-.737-72.837-7.372-109.071-1.105-6.221-2.21-12.81-4.791-18.667-10.321-20.862-23.589-40.26-38.332-58.559-1.105-1.463-2.947-2.926-4.42-4.391-2.581-2.929-5.162-6.224-7.743-9.518-2.21-2.56-4.419-5.49-7.372-9.15zm688.487-86.374c-2.213 0-4.422-.37-6.635-.37.368.732.368 1.464.737 1.83 5.53 2.197 11.057 5.126 17.692 2.197 1.474-.732 4.055.366 5.896 1.097 8.845 4.026 18.061 8.418 28.011 13.178-2.949-5.492-8.108-6.955-10.689-11.346 5.53 2.56 11.426 5.489 16.956 8.052 2.578 1.097 4.792 5.489 8.112 1.097.36-.366 2.94 1.463 4.42 2.563 18.8 12.81 36.49 26.72 53.07 42.089 7.01 6.223 14.01 12.812 19.54 20.13 5.9 8.052 10.69 17.204 15.48 26.353 4.42 8.784 8.47 17.936 12.16 27.085 7 16.104 11.79 32.939 15.11 50.143 3.32 18.299 8.11 36.6 11.43 54.899a270.53 270.53 0 0 1 3.31 73.202c-2.94 32.94-9.21 65.513-20.27 96.624-14.74 42.092-37.59 79.057-71.5 109.071-22.48 19.764-48.652 31.111-78.505 35.503-25.064 3.66-49.39 1.828-73.715-3.661-30.957-6.955-57.127-22.693-79.243-45.386-15.477-15.738-26.535-34.037-37.592-52.704-11.795-20.495-18.43-42.823-26.17-64.781-15.109-43.555-20.639-88.575-21.008-134.327 0-15.37-.736-30.377.737-45.381 2.581-27.084 8.48-53.807 21.379-78.325 16.953-34.04 36.856-66.248 65.235-92.601 19.535-17.936 41.65-31.477 65.976-41.723 11.794-4.758 23.588-8.784 35.751-12.444 4.054-1.463 8.477-1.1 10.686 3.657 2.95 6.224 8.477 9.518 14.376 12.813-.369.365-.737.734-.737 1.466zm23.221 113.459c-2.213 2.926-2.95 6.221-2.213 10.247 1.473 8.052-1.473 10.249-9.582 7.686-1.108-.366-2.581-.366-3.317-1.097-3.686-5.858-9.217-4.392-14.376-3.658-31.329 3.292-52.336 19.396-62.286 49.041-4.426 12.812-7.372 26.353-11.426 39.528-2.949 9.884-3.686 20.13-2.949 30.38.368 8.052 1.104 16.104 1.841 24.522.74 8.052.368 16.469 1.476 24.521 1.473 10.615 2.578 20.865 5.159 31.111.737 2.929.369 6.223 0 9.518-.368 2.56-.736 4.757 1.473 7.32 1.108 1.098 1.477 3.658 2.213 5.489 1.842 5.855 3.686 11.713 5.159 17.933 1.108 3.66 1.476 7.321 2.213 10.981.368 1.466.737 3.294 1.473 4.757 4.054 8.421 8.845 16.107 11.426 24.891 2.213 6.586 6.267 11.712 9.953 17.201 2.578 3.66 5.896 7.321 9.95 9.515 13.267 7.686 28.011 9.884 43.123 6.955 12.531-2.195 24.694-5.855 35.015-13.907 19.534-14.641 31.324-34.405 37.964-57.464 5.16-17.933 8.11-35.868 9.95-54.167 2.95-32.942 1.1-65.15-7-97.358-5.9-23.056-14.01-45.384-28.38-64.416-6.639-8.784-15.484-16.104-23.224-23.791-2.581-2.194-6.635-2.928-8.845-5.491-1.844-2.195-2.212-6.221-3.317-9.15-.369-.731-.737-.731-1.473-1.097zm-111.677-34.04c1.105-.365 1.842-.731 2.946-1.462 7.372-4.392 14.376-9.518 22.116-12.81 14.741-5.857 29.853-10.615 44.965-15.01 9.213-2.56 19.166-3.291 28.379 2.198 1.844 1.1 4.791 2.928 7.372 0-1.842-8.052-7.74-11.713-15.48-13.907-6.636-1.832-13.636-1.832-19.903.731-16.217 6.955-32.434 13.541-48.282 20.862-9.214 4.76-16.585 10.615-22.113 19.399zm117.941 20.496c4.422-.365 9.952-.365 10.321-1.097.736-4.392 4.422-2.563 8.476-3.294-5.53-2.195-9.584-4.027-13.27-5.124-4.423-1.463-5.896-4.026-4.054-9.149 5.53.732 11.057 1.097 16.588 1.829-5.162-15.739-14.744-22.693-27.643-22.325-.368 4.758-.74 9.515-1.108 14.638 0 3.295-.737 7.321.368 10.25 1.845 4.026 2.581 7.32 1.108 11.712-1.108 3.292-.368 6.586 4.054 7.321 4.423.731 9.214 1.097 14.741 1.463-3.315-2.195-5.896-3.661-9.581-6.224zm-4.423-46.849c17.322 2.929 29.116 14.278 42.388 23.059-12.535-12.81-23.59-27.085-41.283-35.503-.737 4.76-.737 8.052-1.105 12.444zm-15.849-39.894c5.528 4.76 10.322 8.42 17.322 9.883 6.267 1.098 12.163 4.758 18.061 7.321-11.426-12.078-26.906-19.399-35.383-17.204zm14.008 92.967-1.108 2.194c2.212 3.66 5.53 3.295 9.216 2.929.368-.732.368-1.097.736-1.829-3.317-.731-5.898-1.831-8.844-3.294zm711.339 1093.252c11.42.37 22.11 1.1 33.17 1.47-4.05-5.86-9.95-5.13-15.11-5.49-5.16-.37-10.32 0-15.85 0 2.95-8.79 6.64-16.47 14.38-21.6 6.26-4.39 16.21-5.12 22.11-.73 9.58 6.96 18.43 14.28 27.64 21.6 2.58 2.19 4.79 4.02 9.96 4.02-5.54-6.59-9.96-12.44-14.75-17.57-6.63-7.32-13.27-15-22.11-20.13-6.64-3.66-12.53-4.39-19.17-.73l-3.31 1.1s-.37-.37-1.48-.73c4.05-6.96 7.37-14.28 11.79-20.5 2.95-4.02 7.38-6.59 12.91-6.59 4.05 0 8.47 1.47 11.79-2.56.37-.73 2.58.37 4.05.37.37-1.83.37-3.3.74-4.76 2.58-.73 5.53-2.2 8.11-2.2 4.79 0 9.21 1.1 12.9-2.56.73-.73 2.95-.37 4.05.37 5.9 3.29 11.43 7.32 16.96 10.98.73.36 1.1 1.09 1.84 1.83 22.11 18.3 34.64 42.82 46.07 68.44 5.16 12.08 11.06 23.79 16.22 35.87 9.21 21.23 16.58 42.82 21.74 65.51 4.79 20.87 4.43 42.46 7.38 63.32 1.1 9.52 2.94 19.03 2.94 28.92 0 23.05-3.68 46.11-8.11 68.8-6.63 35.87-19.16 69.91-36.85 101.75-10.69 19.04-23.59 36.97-42.02 50.15-11.06 8.05-23.59 13.17-36.86 16.1-30.22 6.95-60.44 8.42-91.03 2.56-29.49-5.85-56.39-17.2-79.98-35.13-25.07-19.04-43.86-43.56-55.29-73.57-8.1-21.23-15.84-42.82-19.53-65.52-5.9-35.13-13.27-70.27-11.79-106.14 1.47-35.87 6.26-71 18.79-104.67 7-19.04 15.11-37.34 26.91-53.81 8.47-11.71 16.58-23.42 25.8-34.4 16.21-19.03 37.96-30.01 61.18-38.43 16.58-5.86 33.91-9.52 51.97-8.42 8.47.37 8.84 1.1 7.37 9.15-2.58 15.01-5.16 30.38-7.37 45.39-1.11 6.95-1.11 14.27-1.48 21.59 1.48 1.83 2.95 4.39 3.32 6.95zm4.42 20.5c-5.53 6.59-9.95 12.81-14.74 17.93-1.47 1.47-4.79 2.93-6.63 2.57-3.32-.74-4.8.36-6.64 2.56-11.42 13.91-20.27 29.28-25.8 46.48-7.37 22.69-7.37 45.75-7.37 69.18 0 12.07 2.95 24.15 4.42 36.6 2.22 18.66 4.42 37.7 6.64 56.36 2.58 20.5 12.53 36.6 29.85 47.21 14.38 8.79 30.59 11.35 47.55 9.52 4.79-.36 10.32-3.29 14-6.59 11.06-9.88 19.91-21.59 24.33-35.87 3.32-9.88 6.63-20.13 8.47-30.37 4.06-21.96 9.22-43.93 2.95-66.62-4.05-14.64-4.42-30.74-7.37-45.75-4.42-22.32-13.27-43.55-22.85-64.05-5.53-11.71-12.16-22.69-24.69-28.91-7.74-4.4-15.48-7.32-22.12-10.25zm-510.1-638.312c1.11 3.294 1.48 5.489 2.59 8.783 10.31 0 20.63.366 30.95 0 7.74-.365 14.38 1.097 21.38 4.392 26.91 12.444 50.86 28.916 70.03 50.875 15.85 18.301 29.85 38.066 38.7 61.49 6.26 16.836 12.53 34.037 16.95 51.607 5.16 21.61 8.13 43.68 8.85 65.879 1.11 25.256-1.11 50.875-5.16 75.762-4.42 28.551-11.43 56.733-22.12 83.449-12.16 30.375-28.75 58.195-51.97 81.625-15.84 15.73-32.8 30.01-52.7 40.62-6.26 3.3-13.64 5.49-20.64 6.96-30.96 5.85-60.44 0-89.93-10.98-25.43-9.15-47.18-23.79-68.19-39.53-11.42-8.42-22.48-17.2-30.59-28.55-10.32-15.01-20.27-30.01-25.058-47.947-2.581-10.25-5.898-20.13-8.848-30.38-7-25.619-11.426-51.972-9.95-78.691 1.474-35.134 6.264-69.905 16.954-103.579 4.054-12.809 7.742-25.985 13.632-37.697 11.8-24.156 27.28-46.483 45.71-66.248 10.69-11.346 21.37-23.058 32.43-34.405 20.27-20.861 45.33-32.939 73.35-39.894 2.58-.732 5.53-1.097 5.89-4.026.37-5.124 4.06-6.586 7.74-9.515zm-5.15 132.126c-4.8 6.224-8.11 11.347-12.17 16.104-4.42 5.127-9.21 10.981-14.37 15.007-14.01 10.615-23.96 24.156-29.86 40.26-6.26 16.47-7.74 34.04-9.21 51.607-1.47 19.764-1.47 39.528 2.21 59.293 2.95 14.641 5.53 29.282 10.32 43.554 5.16 15.373 11.79 30.014 27.64 39.163 13.64 8.052 26.91 16.104 43.13 19.028 12.89 2.2 22.85-2.192 29.85-12.439 15.85-23.424 26.54-49.046 28.01-77.228.74-15.373 1.11-31.111 1.48-46.481.36-20.133-.74-40.263-5.16-60.027-2.58-12.078-6.27-24.156-10.33-36.234-4.05-11.712-12.53-21.227-17.69-32.939-5.16-11.347-15.84-18.302-27.64-23.059 1.84-9.15 8.85 0 12.9-4.026-4.79-1.829-8.48-3.295-12.53-4.758-8.11 12.444-8.48 12.81-16.58 13.175zm30.95-51.24c1.48-13.176-10.32-10.613-15.11-15.739-7.74 6.224-3.31 11.713-1.1 17.204 15.48 3.661 31.32 5.489 45.33 13.176-8.11-7.687-18.06-11.713-29.12-14.641zm-16.95 24.521c8.11 0 14.74 4.761 22.11 3.295-1.47-3.295-2.94-6.221-4.79-9.881 2.95.366 5.16.732 7.37 1.097 0-.365.37-1.097.37-1.463-8.11-3.66-15.11-10.249-25.43-10.615.37 6.589.37 11.713.37 17.567zm2.21-56.729c15.48 5.491 29.85 10.249 45.33 15.738-12.89-10.615-26.53-17.567-42.01-23.059-.74 2.197-1.84 4.392-3.32 7.321zm-.74 62.953c-.37 5.489 2.22 5.857 5.9 4.757.37 0 .37-1.097.37-2.194-1.84-.366-3.69-1.466-6.27-2.563zm-857.289 975.771a483.445 483.445 0 0 0 -5.899-17.57c-.736 0-1.104 0-1.841.37v18.3c-4.791.36-8.845 0-12.531.73-3.686 1.09-7.004 1.83-11.058 1.09-1.844-.36-4.054 2.2-5.898 2.2-8.226.37-16.465.37-24.691 0-1.108 0-2.949-1.1-3.321-2.2-2.578-6.58-6.263-12.8-6.632-20.49-1.473-35.87-3.686-71.74-5.53-107.61-.737-12.44-1.842-25.25-2.578-37.7-.737-14.27-.737-28.18-1.473-42.45-.372-6.95-1.845-13.91-1.845-20.86-.736-22.33-1.105-45.02-1.473-67.72-.371-24.52-.371-48.67-1.108-73.19-.368-15.74-1.841-31.48-2.578-46.85-1.108-29.28-1.844-58.57-2.581-87.84 0-4.4-.368-8.79 0-13.18 0-3.29 1.105-6.22 5.527-6.59 4.423-.73 8.845-2.2 13.271-3.66 2.21-.73 4.054-1.83 6.264-3.29 1.473 1.09 2.949 2.56 5.162 4.02 2.946-6.59 7.74-8.42 14.372-6.59 1.105.37 3.318 0 3.686-.73 1.845-3.66 4.423-3.66 7.372-2.19 3.318 1.83 6.264 4.02 6.635 8.42.369 6.58.737 12.8 1.105 19.39.368 2.93.737 5.49 1.842 8.42v-28.55c0-10.61 1.476-10.98 12.531-12.81 4.054-.73 9.584 2.56 12.902-2.92.368-.74 2.578-.74 4.054-1.1.368 0 1.105.36 1.841.36 5.899.37 11.795 1.1 17.322 1.47 2.213 34.4 4.794 68.44 6.635 102.48 1.845 31.48 3.318 62.95 3.686 94.43.369 19.03-1.473 38.06-1.841 56.73 0 11.71.736 23.42 1.473 34.77 1.473 24.89 2.581 49.41 4.423 74.3.736 14.27 2.212 28.55 3.317 42.82 1.105 19.03 2.21 38.06 3.318 56.73.368 6.59 1.105 12.81 1.841 19.03 1.105 16.11 1.105 32.21-2.21 48.31-1.844 9.16-5.898 12.08-15.112 9.16-3.685-1.1-6.635-.37-9.952.36-6.264 1.83-12.531 1.83-18.427 2.2zm-20.639-303.79c-2.213 13.55-.74 26.72 0 40.26zm-297.436-56.73c1.844-.73 3.317-1.46 5.53-2.19a83.545 83.545 0 0 1 -5.899-3.3c1.473-7.68-.368-15.37 2.947-23.06 1.476-2.93-.737-7.68-.737-11.34-.737-35.14-1.841-70.28-2.578-105.41 0-4.03.368-8.06.737-12.45 7.371-2.56 14.375-5.12 22.115-7.68 1.105 1.1 2.946 2.93 5.16 5.49 1.843-3.66 2.946-7.69 5.158-8.42 2.95-1.1 6.635.73 10.69 1.1.736-.73 1.841-2.2 3.317-4.03 4.054 2.57 7.74 4.76 11.795 7.32.736-3.29 1.104-6.59 2.21-9.88 1.107-3.3 2.949-4.76 6.635-2.56 1.473.73 4.054-.37 5.527.36 1.473.74 2.581 2.56 4.425 4.4a192.89 192.89 0 0 0 2.578-9.15c7.372 1.83 14.376 3.29 21.745 5.12 5.898 8.78 7.003 19.4 8.479 29.65 4.055 29.64 8.109 59.29 7.74 88.94 0 21.22-.736 42.45-1.107 64.05 0 5.85-.369 11.71-.737 17.2 0 8.05.368 16.1-.368 24.15-1.842 15.74-1.473 31.48-1.473 47.22 0 8.42-1.108 17.2-1.474 25.99-.736 15.73-1.844 31.84-2.212 47.58-.737 27.81-1.105 55.99-1.845 83.81-.368 10.25-1.841 20.86-1.473 31.11.737 18.67 2.21 36.97 3.318 55.63.368 5.13 0 10.25 0 16.11-5.159 0-10.321 3.29-14.376-2.56-6.632 6.22-13.635 2.19-20.27 1.83-3.684-.37-8.477-.37-11.058-4.76-3.315-6.22-4.42-12.45-4.42-19.4 0-13.91 0-27.82-.371-42.09 0-4.76-.737-9.52-1.105-15.01-3.686 1.1-4.79 2.57-4.054 5.86 1.841 7.69 2.21 15.37-3.318 22.69 5.899 3.29 4.054 8.05 3.686 13.18-.368 8.05 1.473 16.1 2.581 24.15.737 5.13 1.841 10.25 2.578 16.47-8.108-4.02-16.217 1.84-23.954-1.82-.371 0-.737-.37-.737-.37-8.848 7.32-18.432-1.47-27.645 1.46-4.055 1.1-7.74-2.19-8.845-8.05-1.105-6.59-1.845-13.54-1.105-20.13 1.105-10.25-1.473-20.13.736-30.38 1.105-5.49-1.473-11.71-1.844-17.57-.368-7.32 0-14.64 0-21.96 2.58-1.09 4.794-2.19 6.635-3.29-.368-1.1-.368-1.83-.368-2.2-7.004-3.66-7.372-10.25-7.74-17.2 0-6.95-1.105-13.91-1.473-20.86 0-1.83.736-3.3.736-5.12.368-1.84 1.105-3.67.737-5.5-.737-3.65-.737-6.95-.369-10.97.737-5.5-.736-11.72-1.844-17.57-1.105-6.22-.737-7.69 5.162-11.72-.737-.73-1.108-1.83-1.844-2.56-.737-.73-1.842-1.46-2.578-2.19 1.841-5.86 1.841-5.86 7.74-8.06-2.581-2.19-4.794-4.39-7.372-6.95 2.21-1.83 4.054-3.3 6.264-5.12-4.054-2.93 1.844-3.3.736-5.86-8.108-1.83-5.895-9.15-5.895-14.64.368-17.57 2.946-35.14 1.841-52.7-.736-9.52 1.473-18.67.737-28.19-.366-4.39 1.108-9.51 1.476-14.27 0-5.12.737-10.25.737-15.74.736-1.1 0-3.29 0-6.59zm56.393 247.79c-.736 0-1.844-.37-2.58-.37-1.474 5.86-2.95 11.71-4.423 17.93 1.841 1.1 3.682 2.57 7 4.76-.368-8.78 2.584-15.74.003-22.32zm-9.953-88.94c.737 6.95 6.264 8.78 7.74 14.64 2.21-8.05 2.21-8.05-7.74-14.64zm-23.588 98.82c-.737 0-1.105 0-1.845.36.371 2.57.371 5.13.737 8.79 5.898-4.39 1.108-6.59 1.108-9.15zm3.683-7.69c-4.42 0-6.264.37-5.893 4.03 0 .36.736.73 1.473 1.83 1.105-1.83 2.578-3.66 4.42-5.86zm-5.893 33.68c.365.36 1.105.73 1.473 1.09.737-.73 2.21-1.09 2.21-1.83.368-1.1 0-2.19 0-3.29-.369 0-.737-.37-1.473-.37-.369 1.47-1.105 2.93-2.21 4.4zm1.473-116.03c.737-4.76.737-6.59-4.422-7.68 1.841 2.56 2.578 4.39 4.419 7.68zm-21.744-40.63c.736-1.09 1.473-1.82 1.473-2.19 0-.73-.737-1.1-1.108-1.83-.368.73-1.473 1.1-1.473 1.83 0 .37.737 1.1 1.105 2.19zm36.856 15.01c0 .37 0 1.1-.371 1.46 1.108.37 2.58.37 3.686.74 0-.37 0-1.1.37-1.47-1.107-.36-2.58-.73-3.685-.73zm-13.639 42.09c-.368 0-.736-.36-1.473-.36-.737 1.46-1.108 2.92-1.844 4.39.736.37 1.107.37 1.844.73.368-1.83.737-3.29 1.473-4.76zm894.15 161.41c2.21-6.22 4.791-12.81 2.947-20.5-3.315 2.57-3.315 5.86-4.055 8.79-2.946 11.34-6.264 13.91-18.058 12.81-4.422-.37-9.213 0-14.007-.37-2.946-.36-5.896-1.1-8.477-1.83-6.264-2.19-6.632-3.66-6.264-10.24.737-8.06.737-16.11.737-24.53 0-10.25-.737-20.49-1.105-30.74-.739-27.82-1.476-55.63-1.844-83.08 0-1.47.368-2.93 0-4.4-2.95-7.32-.737-14.64-1.105-21.96-1.105-42.46-2.213-85.28-3.686-127.73-1.845-52.71-4.423-105.78-6.267-158.48-.368-5.86-.737-11.71-.737-17.57-.368-7.69.737-9.15 8.845-10.25 11.058-1.46 22.484-2.56 33.91-1.1 2.949.37 6.264.74 10.318 1.47v23.42h1.108c1.105-7.32 2.21-15.01 3.318-22.69 22.849-1.1 45.333-2.56 66.709-3.66-.737 27.45-2.21 55.26-1.842 83.08 0 31.48 1.842 62.95 2.578 94.43.371 17.93 1.108 36.23 1.108 54.17 0 36.23-.368 72.47 0 108.7.368 27.45 1.841 54.9 2.21 82.35 0 20.5 1.476 41-2.947 61.13-1.476 7.68-2.949 9.15-10.689 10.25-4.054.73-8.108 1.46-12.163 1.82-7.74 1.1-15.112 1.1-22.852-1.09-2.581-.73-5.895 0-8.845.36-3.317-.36-6.267 1.1-8.845-2.56zm460.706-1055.556c8.85-1.463 17.7-2.564 26.54-4.026.74.731 1.84 2.197 2.21 2.563 6.27-2.198 11.8-4.026 16.96-5.858 8.47 4.757 3.31 12.809 5.16 19.033.73-2.929 1.47-5.855 2.21-8.418 2.21-9.518 4.05-10.981 13.64-10.249 1.1 0 2.2.365 3.31.365v47.947h.37c.74-13.541 1.47-27.448 2.21-40.992.37-5.489 4.79-9.149 10.32-9.515 5.16-.365 10.32-1.1 15.85-1.466 3.32 0 6.63 0 9.58.735 5.9 1.829 7.01 3.291 7.01 9.515-.37 24.522-.74 49.043-1.48 73.568-.37 16.835-1.47 33.671-1.84 50.872-.74 37.7-1.84 75.763-1.84 113.463 0 21.961 2.21 44.286 2.57 66.247 0 17.202-.73 34.403-1.84 51.607-2.21 27.816-5.16 55.265-7.74 82.715-.37 4.76-.37 9.88-1.1 14.64-.37 2.93-1.85 5.86-2.58 8.79-.74 2.56-1.11 5.49-1.84 9.15-1.48-2.57-2.59-4.4-4.8-7.32v10.61c-8.84-1.47-5.89-10.61-11.42-14.27.37 4.75.74 9.51 1.47 14.27-.73 0-1.1.37-1.84.37-1.48-3.66-2.95-6.96-4.43-10.62-.36 0-1.1 0-1.47.37.37 3.66.74 7.32 1.11 11.34h-7.38c-3.31-11.71-6.26-23.06-9.21-34.4h-1.1c-.37 5.49-1.11 11.34-1.48 17.93-1.47-2.19-2.58-4.02-4.42-6.59-2.58 9.89-.74 17.94.37 26.36h-6.27c-1.84-9.15-3.32-17.94-5.16-26.72-.74 0-1.1 0-1.84.36-1.11 7.9-1.11 15.9 0 23.8 1.1 6.58 0 7.32-7 6.22-2.21-.37-5.16 0-7.38.73-11.79 3.66-11.79 3.66-16.21-7.69-4.06 2.2-1.11 6.59-4.06 10.25-1.47.37-4.42.73-7.37 1.47-.67-4.28-1.41-8.55-2.21-12.81-.74-3.3-.74-6.96-2.58-9.16-8.11-9.88-5.16-21.22-3.69-32.2 4.06-35.14 7.01-70.275 7.01-105.777 0-23.79-2.58-47.946-2.95-71.74-.74-42.82-1.84-86.009.74-128.832 1.84-26.353 2.58-52.704 3.68-78.691.74-15.007 1.11-29.645 1.85-44.652-1.11-.731-.37-1.832.36-3.294zm-90.29-85.278c-2.58-1.466-3.69 0-4.79 1.828-1.48 3.295-3.32 6.589-4.8 10.615-6.26-4.391-3.31-10.981-5.53-16.104-4.79 8.052-9.21 15.739-13.63 23.425-.37 0-1.11-.366-1.48-.366 1.11-5.126 2.22-10.249 3.69-16.473-2.21 1.466-2.95 1.832-4.79 2.929-.37-9.149 5.89-18.301 0-27.816-.74 3.294-1.48 6.223-1.48 8.783 0 4.392-2.21 6.589-5.16 9.153-3.31 2.925-5.53 6.951-8.47 10.977v-23.79c-2.21 17.204-13.64 29.282-20.64 43.92-.74-.365-1.11-.365-1.85-.731.37-2.926.74-5.489 1.11-8.784-1.47 0-2.58-.365-4.05-.365 0-2.563.36-5.123.73-9.149-5.16 6.22-4.79 14.272-11.06 18.298-4.79-3.66-1.1-8.418-2.94-13.541-2.1 2.773-4.32 5.459-6.64 8.052.37-3.295.74-5.858 1.11-8.783-1.84 1.462-2.95 2.56-5.53 5.123.37-3.295.37-5.489.37-7.321.37-6.589-1.11-13.541 1.1-19.033 3.32-8.052 2.22-16.104 2.22-24.156 0-12.443.36-25.253.36-37.697-.36-17.935-1.1-36.234-1.84-54.169-.37-13.541-1.47-27.451-1.47-40.992 0-10.249 1.47-20.496 1.84-30.745.37-7.32-1.11-15.007 2.95-21.961.37-.366.37-1.098 0-1.829-2.58-9.515.73-19.033 1.1-28.548.37-6.955-1.1-13.91-1.1-20.496 0-6.223.73-12.446 1.84-18.667.37-2.194 3.69-4.026 5.53-5.857-6.64-1.463-7-1.463-7-8.052.36-10.978.73-21.593 1.47-32.208 0-1.829 1.11-3.658 1.84-5.855.37-1.1 1.48-2.194 1.11-2.929-3.69-12.809-1.11-25.622-.37-38.065 2.58-30.743 5.53-61.853 8.48-92.599.36-4.025.74-8.051 1.47-12.077.74-5.49 2.21-6.955 8.11-6.955 6.27 0 12.53 0 18.8-.366 1.1 0 1.84-1.097 2.95-1.463l9.95-6.59c4.05 2.195 4.05 5.493 3.68 8.784-1.84 28.548-3.68 57.099-5.16 85.647-1.1 21.227-2.58 42.454-3.31 63.684-.74 21.227-.37 42.455-.74 63.319-.37 17.936-.74 36.234-1.48 54.17v4.757c1.11-.731 2.59-1.097 2.59-1.466.36-4.391 0-8.783 1.84-13.906 2.21-6.589-.74-14.641.37-21.962 1.47-9.515-1.85-18.667 1.47-28.182 1.47-4.389-2.58-9.881 3.32-13.541-4.43-3.66-4.06-8.052-3.69-12.444.37-4.757 1.11-9.883 1.84-14.641.37-2.926.74-6.223 1.11-9.149 0-1.1 1.1-2.563.74-3.295-4.06-10.615-.74-21.593-.37-32.208.37-4.391-2.58-9.883 3.32-12.443-1.11-2.563-2.95-4.392-2.95-6.224.36-9.149-1.11-18.301 3.31-27.45.74-1.463-1.47-4.389-.73-5.49 2.58-4.025 1.1-8.051 1.1-12.077 0-4.392.74-8.784 1.11-13.178.37-4.758.74-9.15 1.47-13.907 1.48-10.25 3.32-20.861 5.16-31.11.74-4.027 1.85-7.321 7.37-9.15.74 1.829 2.22 3.657 2.22 5.489-2.22 29.282-4.8 58.196-7.01 87.109-1.1 11.712-.36 23.425-2.21 34.771-1.84 12.444 0 25.253-2.21 37.697-1.48 8.418.37 17.204.37 25.988 0 3.294-.74 6.955-1.48 10.246 0 .369-.73 1.1-.73 1.463 3.31 12.447 0 25.256.73 38.066 0 .368.74.731 2.22 2.563.36-8.784.73-16.104 1.1-23.425.74-12.078 2.21-23.787 1.48-35.868-.37-10.612 0-21.227.73-31.842 1.11-22.325 2.95-44.652 4.43-66.98 1.1-13.54 2.58-27.45 4.05-40.991 1.47-13.175 3.32-26.72 5.53-39.894 1.47-9.518 9.58-13.544 18.06-10.25 3.68-2.194 6.63-5.123 10.32-6.586 4.05-1.463 8.48.366 11.79 2.926-1.47 19.399-2.95 38.431-3.68 57.464-1.48 31.843-2.21 63.685-2.95 95.527-.74 23.788-1.48 47.946-1.11 71.737.74 24.887-.74 49.412-1.47 74.299-.74 23.425.37 47.215 0 70.64 0 13.541-1.11 26.716-.74 40.26.37 25.984-2.58 51.972-4.79 77.591 0 1.832-.37 3.66-1.11 5.126-3.68 6.952-7 14.273-11.42 20.862-1.84 2.929-4.79 4.757-8.85 6.22 0-1.829.74-4.757 1.85-7.317 0-2.929.36-5.492.73-8.053h-1.84c.37 2.926.74 5.489 1.11 8.053zm-40.91-217.773c-1.11 0-1.85-.366-2.95-.366-.37 14.638-.74 29.279-1.48 43.92-.74 14.638 1.84 29.279-2.58 44.652 6.27 5.123 1.84 12.809 2.58 19.764.74 7.321.37 14.641.37 21.593 0 7.321 0 14.276-.37 21.596 0 7.321-.74 14.641-.74 21.959.37 6.955-2.57 13.909 0 21.596.74-1.098 1.48-1.466 1.48-2.198 1.47-25.619 4.05-51.241 4.42-77.225.37-10.25-2.21-20.496.37-30.745 0-.732 0-1.829-.37-2.563-2.95-5.124 0-8.784 2.58-11.344-1.47-4.76-2.95-8.421-3.68-12.447-.37-4.026.73-8.052 0-12.078-1.48-8.783-.37-17.567 0-26.35.73-6.223.37-12.812.37-19.764zm13.63 110.533c.37-5.492 1.11-12.446 1.47-19.032 0-3.295-1.84-4.392-4.79-4.027 1.11 8.053 2.59 16.105 3.32 23.059zm-.73 42.455c-.37 5.126-1.11 10.249-1.48 15.372 3.32-4.757 3.32-9.88 1.48-15.372zm39.06-434.083c-.74-.363-1.47-.363-2.21-.731-.37 5.491-.74 10.98-1.47 16.472h.73c1.11-5.126 1.85-10.25 2.95-15.74zm-46.07 338.19c7.37 3.66 7.37 3.66 7.74-4.392-2.21 1.463-4.42 2.563-7.74 4.392zm7.01-72.834c4.79-5.126 3.68-9.517 2.57-13.909-.73 4.026-1.47 8.418-2.57 13.909zm-.37 161.406h1.84v-13.175h-1.11c-.36 4.392-.73 8.783-.73 13.175zm1.47-25.253h-1.47v4.392h1.47zm273.11 76.86c-10.32-1.463-8.85 1.466-11.8 10.615-2.95-5.489-5.9-9.881-8.84-15.372-2.95 7.32-5.9 13.909-9.22 21.961-1.47-4.026-2.95-8.052-4.79-12.078-.74-.366-1.1-1.1-1.84-1.466-.74 1.466-1.11 2.929-2.21 5.127-4.43-13.179-10.32-24.891-8.48-38.798-2.95 12.444 2.21 25.619-1.1 38.063-.74 0-1.85.366-2.59.366-2.21-3.658-4.42-6.952-6.63-10.612.37 10.246-5.53 17.932-10.69 26.35-4.79 1.1-8.48-1.463-11.42-6.952-.74 3.295-1.11 5.123-1.48 6.952-7.74 3.66-7-4.392-10.69-8.052-.74 3.295-1.47 5.492-2.21 8.052-1.47-3.291-3.32-6.586-4.79-9.881-.37 0-.74 0-1.1.366v10.981c-4.43-8.418-8.85-16.47-8.85-26.719 0-19.399-1.48-38.431-2.21-57.83-.37-7.318.37-14.638 1.1-21.959 2.22-15.738 2.22-31.842 2.22-47.58 0-6.224 2.21-12.81 1.47-19.033-1.47-9.149 4.79-17.201 2.58-25.985-1.48-5.492-2.95-10.249-2.21-16.107.73-12.443-.37-24.887-.37-36.965 0-11.347 1.84-22.325 1.47-33.671 0-9.152-1.1-18.301 2.21-27.085.37-.731 0-1.832-.36-2.563-5.53-5.855-2.58-12.444-2.58-19.033 0-9.881-.37-19.398 0-29.279.73-20.496 2.21-41.357 2.94-61.853.37-11.347-.36-22.693 0-34.04.37-13.91.74-27.816 1.48-42.091 0-1.463.74-2.926 1.47-4.39 3.32-.733 6.27-1.465 10.32-2.565.37 2.929.74 5.492 1.11 9.518 1.47-4.026 2.58-6.59 3.68-9.518 3.69-2.194 7.37-2.926 10.69 1.463 3.32-4.755 6.64-9.15 12.9-8.78 2.58 3.657 2.95 7.317 2.58 12.077-.73 9.15 0 17.936.37 27.082.37 11.713 1.11 23.425 1.85 35.14 0 1.097.36 1.829.36 2.926h1.85c.36-6.955 1.84-14.273 1.47-21.227-1.11-15.373-.74-30.746 2.21-46.118.37-2.926 1.85-5.489 3.69-7.686 1.1-1.098 4.05-2.195 5.16-1.463 5.89 2.56 11.05 0 16.58-1.097 9.22-1.463 18.06-3.66 27.28-5.127 4.42-.731 6.63 2.195 5.16 5.858-4.43 8.784-2.58 18.298-2.58 27.45 0 15.005 1.47 29.645 1.1 44.65 0 9.152.74 17.935-2.21 27.087-1.84 5.855-.37 12.81-.37 19.399.37 15.738.37 31.476.74 46.846.37 18.301 1.47 36.603 1.47 55.27.37 25.25.74 50.14.37 75.394 0 9.517-1.1 19.032-1.47 28.55-.37 14.638-.74 28.914-1.11 43.555-.37 16.47-1.1 32.574-1.47 49.043a488.897 488.897 0 0 0 0 32.94c0 7.32 1.1 15.007.73 22.327 0 5.489-1.84 10.981-2.94 17.567zm-54.55-396.748c-4.06 11.346-4.42 26.719 0 31.11 0-8.052-1.11-15.372.37-21.958 1.1-4.029.37-6.589-.37-9.152 1.1-.732 2.21-1.098 3.68-1.463-.73-2.563-2.58-5.124-1.84-6.59 1.11-3.294 1.11-4.757-3.68-5.854.37 5.123 1.1 9.515 1.84 13.907zm12.53 22.693h-2.21c-4.79 56.732.37 113.462-.74 170.192h2.21c.37-56.733.37-113.463.74-170.192zm-12.53 85.646c0-4.026-2.95-7.686.74-10.615-1.48-5.492-2.95-11.347-.37-16.836 0-.368-.74-.731-1.11-1.463-.37-1.466-1.1-2.928-1.1-4.394 0-11.347.37-23.056.37-34.406 0-1.097-1.11-2.56-1.48-3.657-.74 0-1.11.366-1.84.366v71.371c1.84 0 2.95 0 4.79-.366zm15.11-134.69c.74-20.13 1.11-40.629 1.84-60.759-2.21.732-3.32 1.832-3.68 2.93-1.48 19.032-.37 38.43 1.84 57.83zm-.37 11.344c-5.9 5.492-2.58 10.25-2.58 14.275 0 4.392-.74 9.149-.74 13.544h1.85c.36-8.421.73-17.204 1.47-27.82zm-7.74 280.726c4.79-3.295 2.58-7.321 1.11-10.978 0 3.657-.74 7.317-1.11 10.978zm2.95 9.883c-1.11 0-1.84-.365-2.95-.365-.37 2.56-.73 5.488-1.11 8.052.74 0 1.48.365 2.59.365.36-2.563.73-5.492 1.47-8.052zm-11.06-140.547c-.36 6.223-.36 6.223 4.43 7.686-1.48-2.926-2.58-4.757-4.43-7.686zm8.11 217.773c-1.47 2.563-3.68 5.492.74 9.152-.37-4.395-.37-6.589-.74-9.152zm-1.47-39.529c.74 0 1.47.366 2.21.366.37-2.194.37-4.392.74-6.952-.37 0-1.11 0-1.48-.366-.37 2.56-1.11 4.758-1.47 6.952zm-3.69-155.185-2.58-2.563c-.73.731-2.21 1.463-2.58 2.563-.37.366 1.11 1.463 1.48 2.563 1.47-.732 2.21-1.463 3.68-2.563zm4.05 189.591c.74 0 1.11-.366 1.85-.366-.37-1.466-.74-3.295-1.11-4.758-.74 0-1.1.366-1.84.366.37 1.463.74 3.295 1.1 4.758zm1.11-25.254c-.73 0-1.47.366-2.21.366.37 1.463.74 2.56 1.48 4.026h1.47c-.37-1.831-.37-3.294-.74-4.392zm204.93-215.578c-2.59.732-4.06 1.1-6.27 1.832 2.21 1.463 3.68 2.56 5.53 4.026-1.85 1.463-2.95 2.56-4.42 3.657.36 3.663 6.63 3.663 4.79 8.421-1.11 2.926-2.95 5.489-4.43 8.417 5.53 3.295 6.27 8.418 5.9 15.007-1.84.732-3.31 1.097-5.16 1.829 3.32 9.152 8.11 17.57 4.79 27.45-.37 1.463-.73 3.661.37 4.758 2.95 4.026.74 6.955-2.58 10.249 4.06 3.66 5.9 7.686 4.79 13.541-.73 6.589 1.11 13.178 1.48 20.13.36 4.026 1.1 8.418-6.27 10.25 3.69 1.828 5.53 2.928 7.74 4.026v10.249c0 2.56-.74 4.392-3.68 5.123-.74 0-1.48 4.392-.74 4.758 3.68 1.831 5.9 4.757 5.53 8.417-.37 2.929-2.95 5.492-4.79 8.784 1.47.734 2.94 1.466 4.05 2.563s2.21 2.563 3.69 4.392c2.21-2.564 3.68-4.758 7-8.418-2.95.731-4.06.731-5.9 1.097.74-5.123 1.11-10.246 1.84-15.373 0-.365.74-.731 2.22-1.828 1.47 2.197 4.05 4.757 3.31 6.223-2.21 8.784 2.95 16.836 1.48 25.253-1.11 7.687-.37 15.373-.37 23.425.37 13.541-.37 27.816-4.79 41.357-.74 2.197 0 4.758 0 6.955.73 8.783-1.85 17.567-1.11 26.719.37 4.757-1.84 9.881-3.32 15.373h-4.79c-1.47-5.492 2.95-11.713-2.58-17.936-2.21 9.515-3.68 17.936-6.26 26.353-1.85 6.586-4.43 13.176-7 19.399-.74 1.463-2.95 2.194-4.8 3.66-3.31-5.126-4.79-9.518-4.42-15.372.74-5.858 1.48-11.713-1.11-17.57-3.68 11.346-2.21 23.79-10.32 35.137-2.94-6.955-.36-12.444-.36-17.567 0-5.127 0-10.615-1.48-16.104-1.47 6.586-2.58 13.541-4.05 20.13h-.74c-.37-2.929-.74-5.492-1.11-8.418-.37 0-1.1-.369-1.47-.369-1.1 3.66-2.58 7.686-3.32 10.615-1.47-11.712-2.94-23.79-4.05-35.868-.37-2.929.73-6.22 1.11-9.515 1.84-17.936 4.05-35.868 5.52-53.804 1.11-10.981 1.84-21.959 2.58-32.939 0-1.832-.74-4.026-1.1-5.858-.74-3.292-.74-6.22 2.95-8.783 1.47 1.462 2.95 2.563 4.79 4.026.37-.366.73-.366 1.1-.732-.37-1.463-.73-3.294-1.47-5.123 1.84 0 3.32.366 5.16.366.37-3.661 1.11-7.321 1.47-10.981 2.21-1.097 4.43-2.198 6.27-2.929 0-.366-.37-1.097-.37-1.463-2.21-.366-4.05-.731-6.63-1.463-.74-6.955-1.48-14.275-2.22-21.596-6.63 10.615 2.59 21.227-2.58 32.208-1.47.366-4.42.732-8.47 1.832-.37-6.223-.74-12.078-1.11-17.936-.37-7.686-.73-15.372-.37-24.521.74 1.828 1.48 3.66 2.21 5.854 3.32-4.392 5.9-6.586 9.22-1.828 0-1.463.37-3.295.37-4.758-9.59-3.66-18.06-15.007-15.11-29.282 4.05 1.1 4.05 1.1 6.63-2.926-1.48-1.466-2.95-2.929-4.42-4.026-4.8-2.197-5.16-6.955-4.42-10.249 1.47-6.955 0-13.176-.38-19.765-.36-8.417-.73-16.835-.73-25.253 0-1.831 1.84-4.026 2.95-5.857 1.47-1.829 3.68-3.295 5.16-6.221-2.58.732-5.16 1.097-8.11 1.829 0-13.907.73-27.085-.37-39.894-.74-11.713-.37-23.056.37-34.406.37-4.026-.37-8.783-.37-13.175 0-25.253.37-50.51 0-76.131-.37-13.541-1.47-26.713-2.58-40.26-.37-3.658-1.84-7.318 2.95-11.344 1.47 8.052 2.58 15.007 4.05 23.425 3.32-6.955.74-12.81 2.58-18.667 1.48 6.589 2.95 12.809 4.43 20.13v-26.354c.36 0 .73-.366 1.1-.366.74 2.93 1.85 5.492 2.21 8.053.74-1.83 1.11-4.39 1.85-6.587h1.47l3.32 17.567c.37 0 .74 0 1.1.366.74-4.026 1.11-8.052 1.85-11.712.73-4.39 1.47-8.418 1.84-12.81 7.37-2.563 8.11-2.563 10.32 2.926a62.82 62.82 0 0 1 4.05 14.278c1.48 10.613 3.32 21.228 3.69 32.208.73 16.104.73 31.843 1.11 47.947 0 7.317.36 14.638-.38 21.958-1.84 11.713 1.85 23.791-.36 35.503-1.48 6.955.36 13.91.74 20.861 2.57 6.955 2.21 15.01 2.21 23.425zm-35.39 38.066c3.69-3.295 5.16-7.321 0-12.81v12.81c0 2.926-.37 6.22 0 9.149 0 1.1.74 2.194 1.48 3.66.74 0 1.47 0 1.84-.366.37-3.294.74-6.589.37-9.88 0-1.1-2.58-1.832-3.69-2.563zm3.32 35.502c-2.58.366-4.79.366-7 .732-1.11.365-2.58 1.463-2.21 1.828 0 1.1.73 2.929 1.84 3.295 1.11.731 2.58 0 3.32 0a83.335 83.335 0 0 1 3.68 8.418c4.79-5.124.74-9.515.37-14.273zm0-3.66c.74-5.858 2.21-11.347-2.21-16.473 1.11 5.492-3.69 11.35 2.21 16.473zm-2.58-61.49c.74 0 1.48-.366 2.21-.366-.37-3.292-.37-6.586-1.1-10.246-.37-2.929 2.94-6.589-1.85-10.25-.37 6.224-.73 11.713-.73 17.204 0 1.098 1.1 2.561 1.47 3.658zm.74 94.064c1.47 6.223 2.58 10.615 3.68 15.007.74-4.758 3.32-10.25-3.68-15.007zm13.63-256.936h-1.47l1.11 18.667h.36v-18.667zm34.65 351.731c-1.48-2.197-2.95-3.66-4.42-5.489-.37 0-1.11.366-1.48.366.37 2.926.37 6.22.74 10.612 2.21-2.56 3.32-3.657 5.16-5.489zm-47.18-235.708c-.73 0-1.84-.363-2.58-.363v13.175h1.85c0-4.392.37-8.786.73-12.812zm0-37.697v-10.615c-1.1 3.294-3.68 6.589 0 10.615zm2.21 166.166c-4.05 8.418-4.05 8.418 1.11 10.615-.46-3.528-.83-7.068-1.11-10.615zm23.22 61.856c-4.42-6.223-4.79-6.223-9.21-1.466 2.58.366 4.79.731 9.21 1.466zm-26.16-131.398c.37-2.926.37-5.855.73-10.247-4.79 4.026-1.84 7.321-.73 10.247zm-2.22-34.768c1.11 0 1.85-.366 2.95-.366l-1.1-7.686c-.74 0-1.85 0-2.58.365.37 2.56.37 5.124.73 7.687zm-4.05 47.214c-.74.366-1.84.732-2.58 1.098.74 1.463 1.11 3.294 1.84 4.757 1.11-.366 1.84-.731 2.95-1.097-1.11-1.832-1.47-3.295-2.21-4.758zm25.43-31.11v-2.195c-1.47 0-2.95.363-4.42.732v1.463zm-25.06-166.167h-.74v8.415h.74zm26.17 343.679c4.05-2.563 5.16-4.029 1.47-6.954-.74 2.56-1.1 4.026-1.47 6.954zm-23.96-269.379c-.74-.369-1.48-.369-2.21-.731-.37.731-1.11 1.097-1.47 1.828-1.11 1.829.36 4.026 1.84 2.926.73-.731 1.1-2.56 1.84-4.023zm-4.05 17.201h1.84c0-2.194.37-4.392.37-6.589h-1.48c-.36 2.195-.73 4.392-.73 6.589zm.37 8.418h2.2v-4.757c0-.366-1.47-.366-2.2-.366-.37 1.828 0 3.294 0 5.123zm31.32 290.972c.74-.365 1.48-1.097 2.21-1.463-1.1-1.097-1.84-2.563-2.94-3.66-.37.366-1.11.732-1.48 1.097.74 1.466 1.47 2.929 2.21 4.026zm-12.9-389.428h1.11c0-2.194-.37-4.389-.37-6.589h-1.47c.36 2.198.73 4.395.73 6.59zm-15.48 218.87c.37-.731.74-1.097 1.48-1.828a25.78 25.78 0 0 0 -3.69-2.926c-.73 1.828-.73 2.56-.37 3.291.74.732 1.84 1.098 2.58 1.463zm-2.94-99.553c-.74.732-1.48 1.463-1.48 1.832 0 .732 1.11 1.463 1.48 1.463.36 0 1.47-1.097 1.47-1.463s-.74-1.1-1.47-1.832zm7.37-61.487c.37 0 1.1 0 1.47.366.37-1.463.74-2.563 1.11-4.026-.74 0-1.48-.366-2.21-.366 0 1.463 0 2.926-.37 4.026zm16.21 161.04c-1.1-.365-1.47-1.097-2.21-1.097 0 0-.74 1.097-.74 1.463.37.732.74 1.1 1.48 1.832.37-.732.74-1.466 1.47-2.198zm4.79 55.267c-.73-.731-1.1-1.828-1.84-1.828s-1.47.365-2.21.731c.37.731.74 1.832 1.47 2.563.37-.366 1.48-1.1 2.58-1.466z"/><path d="m1734.24 41.21c-.37-5.126-1.11-10.25-1.48-15.372-.36-5.127 0-10.615 1.48-15.742.37 4.03.74 7.69 1.1 11.716h.37v-31.48c5.53.366 10.32 1.097 15.48 1.463 5.53 4.758 5.9 11.712 6.64 18.667 1.47 15.373 2.94 30.745 3.68 46.483.74 22.325 0 45.018 0 67.345 0 25.985 0 51.973 1.11 77.957 1.1 31.843 3.31 63.685 4.79 95.162 1.1 19.398 2.21 39.162 2.95 58.561.37 9.515 1.1 19.033 1.1 28.913 0 19.765-.73 39.529-4.05 59.293-1.11 6.224-1.11 12.813-1.48 19.033-1.1 17.201-5.89 33.674-9.95 50.509 0 .366-.73.732-1.1 1.098-5.16-5.855-6.27-5.855-9.59 1.463-1.47 2.563-2.94 5.491-5.15 7.686-4.8-10.978 0-21.959-1.11-32.208-1.48-.366-2.58-.732-4.79-1.097-1.84 11.346-4.06 23.058-6.27 34.771-1.84-.366-3.68-.366-5.52-.732v-16.472c-.38 0-.74-.366-1.11-.366-.74 1.831-1.48 3.66-2.58 5.492-.37-.732-1.11-1.1-1.11-1.466.37-6.221.74-12.444.74-18.299 0-5.126-1.11-10.249-1.47-15.372-.37-3.295-.74-6.589 0-9.518 4.42-20.13 5.15-40.626 7-60.756 1.1-14.641 0-29.645 1.1-44.286 1.11-17.935-3.68-35.868-3.68-53.438 0-19.03-4.42-38.066-1.11-57.096-4.42-8.052-1.47-17.204-2.58-25.618-1.1-8.787-.37-17.936-.37-27.085 0-3.661-.73-7.321-.73-11.347 0-19.033-.37-37.7 0-56.733 1.1-32.573 1.84-65.147 0-97.724-.74-10.246-1.11-20.861-.37-31.473.37 2.563 1.1 5.123 1.47 7.686h1.48v-16.101c3.68-2.926 3.68 5.854 7 1.097.74 1.097 1.84 2.194 2.21 3.295 1.84 13.906 3.32 27.816 4.79 41.723.37.368.74.368 1.11.368zm22.85 289.144c4.05-5.126 1.1-6.223-1.47-7.686-.37-.369-1.11.365-2.22.365 1.11 2.195 2.22 4.026 3.69 7.321zm-21.01-217.773c-.37 0-.37-.369-.74-.369-.73 1.463-1.1 2.563-1.84 4.029.37 0 1.11.366 1.48.366.36-1.1.73-2.563 1.1-4.026zm6.64 248.881h2.21v-5.489h-1.48c-.37 1.828-.73 3.66-.73 5.489zm-1.48-98.456c-1.84-.731-2.58-1.463-3.69-1.463-.36 0-1.1 1.463-1.47 2.195 0 .368 1.11 1.465 1.84 1.1 1.11 0 1.85-.732 3.32-1.832zm-3.69 16.839h2.22c-.37-1.466-.37-2.926-.74-4.392-.37 0-1.48 0-1.48.366zm-26.17-123.344c-7.36-1.1-8.84-2.928-8.47-7.32.37-5.858.73-11.347 1.47-17.204 1.48-9.515-1.1-18.299-1.1-27.451 0-4.757 1.47-9.515 1.1-14.272-2.21-29.283-2.58-58.562-2.95-87.84 0-.732.37-1.464.74-3.295 3.69 3.294 6.27 6.589 6.64 10.98 1.47 16.104 2.57 31.843 3.68 47.947.74 9.515-.37 18.667.37 28.182s-1.1 19.033-1.1 28.547c-.74 13.541-.38 27.085-.38 41.723zm-6.62 6.955c4.05-1.466 5.53.363 5.53 2.926.36 5.123.36 10.249.36 15.741 0 10.978-.74 21.959 0 32.937.74 5.857-2.21 11.346-.36 17.57 1.84 5.123-.38 11.712-.38 17.935 0 2.926 1.85 5.489 1.85 8.418.37 6.22.37 12.809.37 19.03 0 .731-1.11 1.1-1.84 1.832-4.8-1.832-3.32-5.858-4.43-9.518-1.1-4.026-.37-6.586 2.95-8.418-1.11-2.195-2.58-4.026-2.58-5.489-.74-8.418-1.84-16.836-1.84-24.888 0-10.615-1.84-20.861-.74-31.476.37-1.832.74-4.026 1.11-5.858.36-1.463 1.1-3.294.73-4.757-2.94-9.149-1.84-17.567-.73-25.985z"/><path d="m2807.51 846.785c.37 2.929.74 5.855 1.11 9.149 2.95.366 5.9 1.098 8.48 1.466 4.05 9.881 1.1 19.396-.37 29.28-.74 5.488-2.58 10.98-1.85 16.104.74 6.954-2.21 10.249-7.74 12.809-1.47-2.194-2.94-4.026-4.42-6.22-.74.365-1.47.731-2.21.731-.74 3.66-2.21 6.955-2.58 10.615-.74 5.123-3.69 6.952-9.58 6.952 4.05-7.32 4.42-14.638 5.16-22.69h7.74c.73-3.295-1.48-2.929-3.69-3.295-4.05-.731-5.53-3.294-4.05-6.954 1.47-4.026 3.32-8.052 5.16-12.444-5.53-2.198-.37-6.955-.74-10.615-.37-4.392.74-8.784-.74-13.541-1.47-4.026.74-9.152 1.11-13.544.37-4.026 1.11-8.052 1.11-11.712 0-4.392.36-8.052 5.89-8.784 1.48-.366 2.58-2.194 3.69-4.392-2.95-.365-6.27 3.295-8.11-.731-1.84-3.295-2.21-6.589.74-10.249 6.63 1.831 7.74 12.443 17.69 9.883a214.445 214.445 0 0 1 -4.06 6.955c1.48.366 2.58.731 3.69.731.37.732.74 1.098.74 1.463-2.58 5.489-1.11 11.347-1.11 16.836 0 1.466-.37 4.392-.74 4.392-1.84.368-3.68 0-5.52-.732-1.48.732-3.32-.366-4.8-1.463 0-4.392 0-4.392-5.16-4.026 2.22 1.463 3.69 2.929 5.16 4.026zm5.53 15.373c-3.68-.732-6.26-1.466-10.32-2.198 1.48 3.295 2.21 5.492 3.32 7.321.74 1.097 2.21 2.197 3.32 1.832 1.1-.369 2.58-1.832 3.31-2.929.37-.732.37-2.198.37-4.026zm-2.58 15.007-1.1 1.097c1.1 1.097 1.84 2.194 2.95 2.929.36-.735 1.1-1.101 1.47-1.832zm-1101.65-591.832c3.68-1.463 5.16.366 5.53 3.661.73 9.149 1.1 17.932 1.47 27.084.37 9.515 1.48 18.665 1.48 28.182 0 2.929-2.22 5.855-3.32 9.15-2.58-4.026-3.32-7.687-3.32-12.444 0-9.149-1.1-18.667-2.21-27.816-.74-5.855 2.58-11.713-1.84-17.567-1.48-1.832 1.47-6.955 2.21-10.25zm1073.27 549.74c2.58 1.463 4.79 2.56 8.48 4.392-2.95.365-4.42.365-6.27.731-.73 6.223 10.32 8.784 5.53 16.47-6.63 1.831-12.53 0-14-5.489-1.11-3.295-1.48-7.686-.37-10.981.37-2.197 4.05-3.294 6.63-5.123zm.37-23.425c1.1 5.489 5.89 7.321 9.58 10.25-.37 2.926-.37 5.489-.37 7.686-4.79 5.123-9.58 1.829-15.48.366.37-2.198.37-4.026.74-6.224.37-2.563 2.21-5.123 1.84-7.32-.74-3.66 2.58-3.295 3.69-4.758zm3.31 15.739c-1.84-.732-2.94-1.463-3.68-1.463-.74.365-1.85 1.463-2.21 2.194 0 .732 1.47 2.197 1.84 2.197a49.153 49.153 0 0 0 4.05-2.928zm-15.47 122.611c-4.43.366-8.48 2.195-12.9-2.197 2.58-.731 4.42-1.097 6.63-1.829.37-4.391.37-10.249 8.11-10.98-.37 3.66-.74 6.589-.74 9.515-1.84.368-3.32.368-6.26 1.1 2.21 2.194 3.68 3.294 5.16 4.391zm-9.96 48.312c2.22 3.66 5.17 4.76 9.59 2.56-2.95 2.93-8.48 2.93-6.27 8.06l.37-.37c-3.69-4.76-9.58-2.2-14-4.03 3.31-5.854 3.31-5.854 10.31-6.22zm25.07-48.677c-.37-2.198-.74-2.929-1.11-4.026 2.95-1.098 5.9-2.198 9.22-3.295 2.21 2.563 4.42 5.123 6.63 7.321-4.42 3.294-4.79 3.294-8.11-2.929-1.84.731-4.05 1.831-6.63 2.929z"/></g></svg>