<svg fill="none" height="58" viewBox="0 0 60 58" width="60" xmlns="http://www.w3.org/2000/svg"><g fill="#2b296a"><path d="m22.6208 57.1543c-11.2987-.7787-20.50286-7.4677-21.935646-20.0668-.203004-.8775-.273835-1.7803-.210214-2.6787.288115-1.3471.6541-3.5664 1.40942-3.7533 1.50287-.3737 3.84671-.1869 4.81229.7787 1.34777 1.5495 2.19238 3.4723 2.4217 5.5131.2523 1.9483.95255 3.8117 2.04595 5.4439 1.0934 1.6323 2.5501 2.989 4.2558 3.9637 1.7058.9747 3.6142 1.5409 5.5755 1.6542s3.9222-.2293 5.7289-1.0011c9.5077-4.1738 17.863-9.8037 23.6954-18.6885 1.8533-2.8267 4.1193-1.7677 6.3307-.3427 2.2115 1.425 4.1349 3.3484 2.3361 5.6767-9.0795 12.0151-20.5885 20.5262-35.695 23.4463-.2553.0371-.5129.0553-.7709.0545z"/><path d="m17.3414 12.1929c.6229-3.66758.8176-6.29176 1.5573-8.74462.6697-2.18033 2.0091-3.488524 4.6722-1.9 4.3528 2.57745 5.6844 10.49672 1.8455 13.72052-1.1759.9967-3.73 1.6663-4.8746 1.0434-1.573-.8566-2.4373-3.0602-3.2004-4.1193z"/><path d="m49.0027 10.7601c.0545 3.3717-2.5541 6.7668-5.2094 6.6188-3.3795-.2024-4.5632-2.336-4.5709-5.4508 0-3.69097 2.3983-7.63112 4.6721-7.61555 2.4528 0 5.0537 3.29385 5.1082 6.44755z"/></g></svg>