<svg fill="none" height="85" viewBox="0 0 84 85" width="84" xmlns="http://www.w3.org/2000/svg"><path d="m11.1418 20.8925c5.4119-.3426 10.8393-.5995 16.2434-1.129.5484-.1309 1.0595-.3856 1.4942-.7446.4346-.3591.7812-.8129 1.0132-1.3268 1.7053-4.7266 2.9512-9.6401 4.8434-14.28887.4065-.83062.9879-1.56343 1.7043-2.14813.7164-.584699 1.5509-1.007426 2.4462-1.2391585 1.1291-.1946715 3.2704 1.4327885 3.8934 2.7409785 2.7332 6.1127 5.1938 12.35778 7.5299 18.64178 1.2615 3.4029 2.9357 5.4508 7.0082 5.0537s8.0205-.2803 12.0385-.3816c.3893 0 .7787-.0467 1.168-.0467 4.1582 0 9.0328.4672 10.3955 4.3996.841 2.4295-1.4951 6.6266-3.4729 9.2196-2.5386 3.325-6.066 5.9336-9.3443 8.6668-1.8066 1.5574-2.227 2.7799-.7787 4.8824 5.007 7.3897 9.8037 14.9119 14.7562 22.3328 2.6942 4.0336 1.7831 5.77-2.4996 7.8413-5.3808 2.6086-9.0173 0-13.0587-2.7332-7.1483-4.8512-14.3823-9.5856-21.7331-14.1253-1.1291-.7009-3.543-.7787-4.5397 0-5.1394 3.8467-9.7881 8.3553-15.0521 11.9917-2.774 1.7819-5.9658 2.8073-9.2586 2.9746-2.336.1402-2.9979-2.5619-2.336-4.7967 2.336-7.6545 4.4229-15.418 7.3274-22.8545 1.3472-3.4495 1.4328-5.4508-1.5029-7.9504-5.6922-4.8668-11.03395-10.1229-16.49254-15.27-1.84549-1.7365-3.893434-3.9791-2.08688-6.3385 1.25369-1.6509 3.89343-2.3828 6.05039-3.1693 1.28484-.4672 2.81886-.2492 4.24383-.3348zm5.6299 8.3398c2.4373 3.1147 4.7111 6.6811 7.5845 9.6324 8.1217 8.3163 8.1217 8.1995 3.3327 18.9143-1.1602 2.5774-1.9233 5.334-2.8733 8.0049 3.385-1.4053 6.6199-3.148 9.6557-5.2017.5451-.3426 1.0824-.7008 1.6197-1.059 5.1705-3.5352 9.0094-3.4184 14.3122 0 5.9181 3.7845 11.9918 7.3353 18.0033 10.9873-2.6701-4.7936-5.5863-9.446-8.7369-13.9385-3.4807-5.1082-3.3639-6.7824 1.1602-11.2287 1.6509-1.6274 3.4886-3.1147 5.2796-4.5709 2.1491-1.7832 4.3372-3.5118 6.5176-5.2639-.3193-.436-.6308-.8799-.9423-1.316-1.3668-.2397-2.7482-.388-4.1348-.4438-3.8934.0778-7.7868-.0935-11.618.5373-6.5098 1.0746-9.7491-2.0013-11.7504-7.6935-1.4639-4.1348-3.4106-8.0983-5.5442-13.0897-.7787 2.593-1.9312 4.2828-1.6742 5.7234.8332 4.6721-1.7521 8.2151-3.543 11.945-.7009 1.4484-2.889 3.1693-4.2828 3.1148-2.4529-.1635-1.8221-2.5308-1.425-4.3373.0701-.3271-.1635-.7242-.3504-1.4951z" fill="#2b296a"/></svg>