<svg fill="none" height="73" viewBox="0 0 68 73" width="68" xmlns="http://www.w3.org/2000/svg"><path d="m25.5987 10.0125c4.7557-5.21972 11.1671-8.63818 18.1513-9.678088 6.9843-1.039908 14.1135.36246 20.1835 3.970268 4.2983 2.6086 4.4385 7.25732 3.4496 11.04952-1.682 6.432-3.8935 12.9496-7.1484 18.6885-7.3754 12.7764-16.643 24.3622-27.4876 34.3635-5.9259 5.5598-5.8402 5.1316-9.7804-2.1959-4.1581-7.7323-8.9081-15.1532-13.6192-22.5819-4.07254-6.3619-7.63114-12.8795-8.378676-20.5963-.521721-5.3574.840986-10.3721 5.100406-13.45571 5.00697-3.62868 10.83157-4.97581 16.67947-1.1291.8488.56066 1.7832.98115 2.85 1.56521zm4.493 17.3958c-6.3852-1.6586-6.3229-1.6664-7.0782-8.6434-.2429-1.0975-.8732-2.0706-1.7754-2.741-1.5671-1.1764-3.4806-1.7988-5.4399-1.7692s-3.8531.7095-5.3839 1.9327c-3.19262 2.4373-2.97458 5.8246-2.03237 9.173.5302 1.867 1.31635 3.6515 2.33607 5.3028 4.1037 6.5799 8.3787 13.0508 12.459 19.6152 1.9545 3.1147 3.6832 6.3774 5.6455 9.7959.5733-.4556 1.1193-.9444 1.6352-1.464 5.7312-6.502 11.9373-12.6614 16.8975-19.6696 4.6722-6.5721 8.2463-13.9463 11.7738-21.2348 1.8688-3.8935.2024-6.2295-4.0492-6.8447-3.2023-.4549-6.44-.6113-9.6713-.4672-7.0082.3504-12.1319 3.2861-13.6815 10.7303-.4127 2.0324-1.0279 3.9947-1.6353 6.284z" fill="#2b296a"/></svg>